<svg width="32" height="32" viewBox="0 0 32 32" fill="none" xmlns="http://www.w3.org/2000/svg">
<circle cx="16" cy="16" r="16" fill="black"/>
<path d="M25.559 23.235C25.4679 22.8165 25.4507 22.7413 21.7586 17.4256L21.6314 17.2426C21.4398 16.966 21.3 16.766 21.2419 16.6809C21.1289 16.5163 21.0111 16.3659 20.8964 16.2198C20.8588 16.173 20.8085 16.1077 20.7567 16.0396C20.8697 15.8623 20.9922 15.6821 21.121 15.4934C21.2419 15.3147 21.3676 15.1317 21.4885 14.9444L23.7201 11.517C23.8331 11.3439 23.9603 11.1595 24.0718 10.9963C24.3765 10.5537 24.6906 10.0969 24.9576 9.59044C25.0863 9.34644 25.4774 8.60306 25.1539 7.77741C25.0078 7.40289 24.6717 6.89643 23.9007 6.61412C23.6133 6.50914 23.3165 6.3999 20.8163 6.3999C20.2903 6.3999 19.5977 6.40558 19.2899 6.43395C19.0088 6.45949 18.5848 6.51907 18.1341 6.72761C17.6692 6.94325 17.2593 7.2596 16.9138 7.66817C16.6013 8.03844 16.3689 8.42857 16.1616 8.77614C16.1239 8.83856 16.0878 8.90098 16.0517 8.95915C16.0313 8.92652 16.0093 8.89531 15.9889 8.86268C15.9386 8.78749 15.8899 8.70804 15.8412 8.62718L15.8255 8.60165C15.6104 8.25408 15.3654 7.85969 15.0183 7.49226C14.5299 6.97446 13.9379 6.63256 13.305 6.50346C12.8512 6.41125 12.4114 6.3999 12.1193 6.3999C11.9513 6.3999 11.7927 6.40416 11.6388 6.407H11.6199C11.5116 6.40983 11.4064 6.41267 11.3027 6.41267L7.97029 6.42118C7.5447 6.42118 7.14738 6.55879 6.85214 6.80705C6.71237 6.9248 6.60244 7.05816 6.52549 7.20711C6.23811 7.76464 6.49409 8.31508 6.7909 8.95205C7.03745 9.48263 7.37509 9.95504 7.55726 10.192C7.64521 10.3069 7.72844 10.4161 7.78183 10.4955L10.3495 14.3443C10.4673 14.5203 10.6196 14.7302 10.8018 14.9813C10.9792 15.2253 11.287 15.6509 11.5147 15.9971C11.4456 16.0921 11.3718 16.1872 11.3106 16.2666C11.1912 16.4227 11.0672 16.583 10.9494 16.7532L8.05666 20.968L7.32798 22.0334C7.31541 22.0504 7.29029 22.0817 7.26516 22.1143C7.14424 22.2675 6.9605 22.5002 6.82545 22.8037C6.52706 23.4719 6.61972 24.2054 7.07514 24.7672C7.47089 25.2552 8.05509 25.5233 8.8136 25.5659H8.83087C9.16066 25.5857 9.51087 25.5956 9.93488 25.5956C10.2128 25.5956 10.4892 25.5914 10.7562 25.5886C11.0106 25.5843 11.2493 25.5815 11.4912 25.5815C11.6121 25.5815 11.7503 25.5857 11.9026 25.59C12.0801 25.5956 12.2654 25.5999 12.4601 25.5999C12.7758 25.5999 13.0396 25.5857 13.2893 25.5545C13.7008 25.5049 14.0777 25.3587 14.4137 25.1232C14.7592 24.8806 15.0278 24.5643 16.0642 22.9953C16.1255 23.0903 16.1883 23.1854 16.2496 23.279L16.2558 23.2889C16.3218 23.3882 16.3893 23.4975 16.4647 23.6166C16.6799 23.9628 16.9248 24.3557 17.2546 24.7289C17.3913 24.8835 17.809 25.3545 18.6382 25.5105C18.9334 25.5659 19.2522 25.5914 19.6385 25.5914C19.8019 25.5914 19.962 25.5871 20.1018 25.5829H20.1222C20.2274 25.5786 20.3248 25.5758 20.4096 25.5758H23.395L23.4578 25.5729C24.1001 25.5446 24.6293 25.3304 25.0298 24.9374C25.4946 24.4806 25.6925 23.8436 25.559 23.2322V23.235ZM23.6415 23.7869C23.5599 23.8677 23.4657 23.8692 23.3557 23.8748H20.408C19.9715 23.8748 19.4454 23.9245 19.0198 23.845C18.8784 23.8181 18.8141 23.767 18.7261 23.6677C18.3963 23.296 18.1451 22.8264 17.8734 22.4165C17.2735 21.4972 16.6673 20.5807 16.0517 19.6699C15.6575 20.236 13.5688 23.5599 13.2532 23.7826C13.1857 23.8308 13.1197 23.8592 13.0349 23.8692C12.5496 23.9287 11.9796 23.8791 11.4849 23.8791C10.6494 23.8791 9.78726 23.9188 8.95337 23.8692C8.83087 23.8621 8.67383 23.8592 8.59531 23.7628C8.51679 23.6663 8.52621 23.55 8.57489 23.4436C8.65342 23.2676 8.8136 23.1045 8.9251 22.9428L9.66163 21.866L12.5528 17.654C12.8904 17.1618 13.4369 16.5943 13.5767 16.0325L13.5877 15.9829C13.4401 15.4254 12.3596 14.0578 11.9607 13.4648L9.39623 9.62166C9.15281 9.25281 8.71624 8.78607 8.56862 8.39027C8.52464 8.27536 8.57647 8.22854 8.63143 8.12782L11.3106 8.12072C11.8131 8.12072 12.4036 8.06823 12.8936 8.16896C13.1684 8.22429 13.4071 8.41155 13.5861 8.60023C13.8924 8.9251 14.1279 9.36204 14.3682 9.73231C14.9304 10.5948 15.4643 11.4758 16.058 12.3199C16.5935 11.5383 17.1086 10.7466 17.6064 9.94511C17.8624 9.54079 18.1042 9.07406 18.4152 8.70521C18.5706 8.52078 18.7669 8.35338 18.9978 8.24698C19.1533 8.17605 19.3135 8.1491 19.4846 8.13207C19.9401 8.08951 22.9113 8.09235 23.194 8.19591C23.2803 8.22712 23.3463 8.26543 23.3793 8.34771C23.4374 8.49525 23.3259 8.73358 23.2568 8.86268C22.9349 9.47412 22.4794 10.0685 22.0978 10.6544L19.8647 14.0833C19.5804 14.5217 19.2711 14.9487 18.9994 15.3927C18.858 15.6225 18.6884 15.9148 18.7512 16.1843C18.8643 16.6738 19.3527 17.1589 19.6401 17.5789C20.017 18.1293 23.6604 23.3386 23.7106 23.567C23.7279 23.6478 23.7059 23.7273 23.6431 23.7897L23.6415 23.7869Z" fill="white"/>
</svg>
