<svg width="471" height="136" viewBox="0 0 471 136" fill="none" xmlns="http://www.w3.org/2000/svg">
<g clip-path="url(#clip0_185_906)">
<path d="M470.7 118.66C470.12 115.71 470.01 115.18 446.5 77.71L445.69 76.42C444.47 74.47 443.58 73.06 443.21 72.46C442.49 71.3 441.74 70.24 441.01 69.21C440.77 68.88 440.45 68.42 440.12 67.94C440.84 66.69 441.62 65.42 442.44 64.09C443.21 62.83 444.01 61.54 444.78 60.22L458.99 36.06C459.71 34.84 460.52 33.54 461.23 32.39C463.17 29.27 465.17 26.05 466.87 22.48C467.69 20.76 470.18 15.52 468.12 9.69999C467.19 7.05999 465.05 3.48999 460.14 1.49999C458.31 0.75999 456.42 -0.0100098 440.5 -0.0100098C437.15 -0.0100098 432.74 0.0299902 430.78 0.22999C428.99 0.40999 426.29 0.82999 423.42 2.29999C420.46 3.81999 417.85 6.04999 415.65 8.92999C413.66 11.54 412.18 14.29 410.86 16.74C410.62 17.18 410.39 17.62 410.16 18.03C410.03 17.8 409.89 17.58 409.76 17.35C409.44 16.82 409.13 16.26 408.82 15.69L408.72 15.51C407.35 13.06 405.79 10.28 403.58 7.68999C400.47 4.03999 396.7 1.62999 392.67 0.71999C389.78 0.0699903 386.98 -0.0100098 385.12 -0.0100098C384.05 -0.0100098 383.04 0.0199902 382.06 0.0399902H381.94C381.25 0.0599902 380.58 0.0799902 379.92 0.0799902L358.7 0.13999C355.99 0.13999 353.46 1.10999 351.58 2.85999C350.69 3.68999 349.99 4.62999 349.5 5.67999C347.67 9.60999 349.3 13.49 351.19 17.98C352.76 21.72 354.91 25.05 356.07 26.72C356.63 27.53 357.16 28.3 357.5 28.86L373.85 55.99C374.6 57.23 375.57 58.71 376.73 60.48C377.86 62.2 379.82 65.2 381.27 67.64C380.83 68.31 380.36 68.98 379.97 69.54C379.21 70.64 378.42 71.77 377.67 72.97L359.25 102.68L354.61 110.19C354.53 110.31 354.37 110.53 354.21 110.76C353.44 111.84 352.27 113.48 351.41 115.62C349.51 120.33 350.1 125.5 353 129.46C355.52 132.9 359.24 134.79 364.07 135.09H364.18C366.28 135.23 368.51 135.3 371.21 135.3C372.98 135.3 374.74 135.27 376.44 135.25C378.06 135.22 379.58 135.2 381.12 135.2C381.89 135.2 382.77 135.23 383.74 135.26C384.87 135.3 386.05 135.33 387.29 135.33C389.3 135.33 390.98 135.23 392.57 135.01C395.19 134.66 397.59 133.63 399.73 131.97C401.93 130.26 403.64 128.03 410.24 116.97C410.63 117.64 411.03 118.31 411.42 118.97L411.46 119.04C411.88 119.74 412.31 120.51 412.79 121.35C414.16 123.79 415.72 126.56 417.82 129.19C418.69 130.28 421.35 133.6 426.63 134.7C428.51 135.09 430.54 135.27 433 135.27C434.04 135.27 435.06 135.24 435.95 135.21H436.08C436.75 135.18 437.37 135.16 437.91 135.16H456.92L457.32 135.14C461.41 134.94 464.78 133.43 467.33 130.66C470.29 127.44 471.55 122.95 470.7 118.64V118.66ZM458.49 122.55C457.97 123.12 457.37 123.13 456.67 123.17H437.9C435.12 123.17 431.77 123.52 429.06 122.96C428.16 122.77 427.75 122.41 427.19 121.71C425.09 119.09 423.49 115.78 421.76 112.89C417.94 106.41 414.08 99.95 410.16 93.53C407.65 97.52 394.35 120.95 392.34 122.52C391.91 122.86 391.49 123.06 390.95 123.13C387.86 123.55 384.23 123.2 381.08 123.2C375.76 123.2 370.27 123.48 364.96 123.13C364.18 123.08 363.18 123.06 362.68 122.38C362.18 121.7 362.24 120.88 362.55 120.13C363.05 118.89 364.07 117.74 364.78 116.6L369.47 109.01L387.88 79.32C390.03 75.85 393.51 71.85 394.4 67.89L394.47 67.54C393.53 63.61 386.65 53.97 384.11 49.79L367.78 22.7C366.23 20.1 363.45 16.81 362.51 14.02C362.23 13.21 362.56 12.88 362.91 12.17L379.97 12.12C383.17 12.12 386.93 11.75 390.05 12.46C391.8 12.85 393.32 14.17 394.46 15.5C396.41 17.79 397.91 20.87 399.44 23.48C403.02 29.56 406.42 35.77 410.2 41.72C413.61 36.21 416.89 30.63 420.06 24.98C421.69 22.13 423.23 18.84 425.21 16.24C426.2 14.94 427.45 13.76 428.92 13.01C429.91 12.51 430.93 12.32 432.02 12.2C434.92 11.9 453.84 11.92 455.64 12.65C456.19 12.87 456.61 13.14 456.82 13.72C457.19 14.76 456.48 16.44 456.04 17.35C453.99 21.66 451.09 25.85 448.66 29.98L434.44 54.15C432.63 57.24 430.66 60.25 428.93 63.38C428.03 65 426.95 67.06 427.35 68.96C428.07 72.41 431.18 75.83 433.01 78.79C435.41 82.67 458.61 119.39 458.93 121C459.04 121.57 458.9 122.13 458.5 122.57L458.49 122.55Z" fill="white"/>
<path d="M105.3 3.02999L93.26 2.95999C92.38 2.95999 91.21 2.91999 89.9 2.86999C88.07 2.80999 86 2.73999 83.92 2.73999C79.34 2.73999 76.1 3.06999 73.34 3.82999C72.54 4.05999 71.74 4.33999 70.96 4.65999C70.19 4.98999 69.43 5.35999 68.7 5.77999C67.97 6.19999 67.27 6.65999 66.6 7.15999C65.94 7.65999 65.3 8.19999 64.71 8.76999C58.2 15 58.19 23.08 58.18 26.98L58.23 37.84H47.56V3.29999L35.74 3.12999C34.46 3.10999 33.17 3.07999 31.84 3.03999C29.74 2.97999 27.58 2.92999 25.37 2.92999C23.02 2.92999 20.94 2.99999 19.02 3.13999L18.17 3.19999L16.96 3.46999C10.97 4.96999 6.4 8.17999 3.38 13.01C1 16.79 0.480004 20.27 0.270004 23.47C-0.0199959 27.83 0.0400041 32.08 0.100004 36.24C0.120004 37.88 0.150004 39.43 0.150004 40.98V72.12L0.140004 89.3C0.140004 89.91 0.110004 90.61 0.0900041 91.36V91.45C-0.0199959 94.41 -0.149996 98.1 0.740004 101.87C2.03 107.33 5.46 112.08 10.17 114.9C14.04 117.21 19.16 118.2 27.31 118.2C29.31 118.2 31.23 118.15 32.76 118.1H32.98C34.03 118.07 34.93 118.04 35.61 118.04H47.6L47.62 81.54L58.29 81.57L58.25 88.55C58.25 89.29 58.22 90.1 58.2 90.96C58.11 94.01 58.01 97.47 58.67 101.14C59.19 104.07 60.5 108.3 63.77 111.75C69.74 118.06 77.91 118.06 81 118.06C81.27 118.06 81.54 118.06 81.83 118.06C82.48 118.06 83.12 118.04 83.72 118.02L104.81 117.96L104.99 106.18C105.21 91.45 105.25 76.52 105.11 61.8C105.03 46.3 105.06 30.58 105.21 15.08L105.32 3.03999L105.3 3.02999ZM93.08 61.85C93.22 76.56 93.18 91.27 92.96 105.98L83.55 106.01C82.91 106.03 82.27 106.04 81.63 106.05C78.53 106.09 74.75 105.91 72.46 103.49C71.36 102.33 70.74 100.58 70.46 99.03C69.87 95.71 70.22 91.97 70.23 88.58L70.32 69.53C66.49 69.35 62.59 69.55 58.76 69.55L35.6 69.49L35.58 106.02C30.91 106.02 20.15 106.87 16.32 104.58C14.36 103.41 12.93 101.31 12.41 99.1C11.71 96.11 12.13 92.4 12.13 89.31L12.15 72.13V40.97C12.14 35.45 11.87 29.77 12.24 24.26C12.36 22.4 12.53 20.98 13.54 19.36C15.01 17.01 17.24 15.76 19.86 15.1C25.01 14.73 30.38 15.05 35.56 15.13V49.87L70.29 49.84L70.18 26.99C70.18 23.45 70.28 20.05 73.02 17.43C73.27 17.19 73.53 16.96 73.81 16.76C74.09 16.55 74.38 16.36 74.68 16.19C74.98 16.02 75.29 15.86 75.61 15.73C75.93 15.6 76.26 15.48 76.59 15.39C80.59 14.28 88.78 14.93 93.18 14.96C93.03 30.59 93 46.22 93.08 61.85Z" fill="white"/>
<path d="M200.9 20.6199C193.27 20.5099 186.37 20.3899 179.48 20.2799C172.58 20.1699 165.68 20.0499 158.04 19.9399L156.69 19.9199L149.02 34.4299L141.91 20.3899L97.3701 20.4399L101.88 35.6199C103.27 40.2899 104.9 44.7899 106.48 49.1299C106.96 50.4499 107.44 51.7599 107.91 53.0899L119.06 83.7799L122.08 91.9999C120.48 91.9999 118.77 91.9799 117.14 91.9499H116.79C115.51 91.9199 114.24 91.8999 112.99 91.8999L100.95 91.8299L100.84 134.58L113.16 134.29C117.54 134.19 121.94 134.15 126.28 134.19H126.38C136.19 134.19 149.62 134.19 160.08 123.06C167.94 114.71 173.2 100.21 177.43 88.5299C178.18 86.4599 178.89 84.5099 179.52 82.8399L204.07 20.6499L200.88 20.5999L200.9 20.6199ZM180.66 46.3399L168.34 78.5399C164.34 89.0299 158.78 106.94 151.35 114.84C144.54 122.07 135.63 122.19 126.39 122.19C121.89 122.15 117.39 122.19 112.89 122.3L112.94 103.91C119.32 103.95 126.21 104.31 132.51 103.4C134.11 102.83 135.71 102.07 136.52 100.48C137.11 99.3199 136.94 98.3099 136.64 97.0999C136.06 94.8099 135.09 92.5599 134.26 90.3499L130.32 79.6499L119.21 49.0599C117.22 43.4699 115.07 37.8999 113.38 32.2099C121.02 32.0699 128.71 32.0099 136.36 32.2099C137.53 36.3099 139.03 40.2999 140.35 44.3499C143.15 53.0499 146.01 61.7199 148.93 70.3799C152.25 61.1699 155.13 51.7599 158.22 42.4699C159.2 39.5199 160.29 34.8299 161.78 32.2499L162.74 32.1199C170.51 32.0199 178.32 31.9499 186.08 32.1799C184.06 36.7999 182.47 41.6299 180.66 46.3399Z" fill="white"/>
<path d="M255.36 59.4001C255.24 59.1801 255.12 58.9601 254.99 58.7501C254.86 58.5301 254.73 58.3201 254.59 58.1101C254.45 57.9001 254.31 57.7001 254.16 57.4901C254.01 57.2901 253.86 57.0901 253.7 56.9001C253.54 56.7101 253.38 56.5201 253.21 56.3301C253.04 56.1401 252.87 55.9601 252.69 55.7901C252.51 55.6101 252.33 55.4401 252.15 55.2701C251.96 55.1001 251.78 54.9401 251.58 54.7801C251.39 54.6201 251.19 54.4701 250.99 54.3201C250.79 54.1701 250.58 54.0301 250.38 53.8901C250.17 53.7501 249.96 53.6201 249.75 53.4901C249.54 53.3601 249.32 53.2401 249.1 53.1201C248.88 53.0001 248.66 52.8901 248.43 52.7801C248.2 52.6701 247.98 52.5701 247.74 52.4801C247.51 52.3901 247.27 52.3001 247.04 52.2101C243.65 51.0101 239.28 50.6901 235.72 51.1801C232.83 51.4201 230.07 51.8501 227.27 52.6101C227.27 63.3701 227.05 74.2001 227.31 84.9601C233.99 85.9001 241.09 86.7301 247.56 84.2801C251.67 82.3801 254.75 79.5501 256.31 75.2201C258.03 70.4601 257.85 64.6701 255.68 60.0901C255.57 59.8601 255.46 59.6401 255.35 59.4201L255.36 59.4001Z" fill="white"/>
<path d="M287.3 48.21C283.14 37.66 275.27 29.64 264.55 25.02L264.48 24.99C262.44 24.12 260.32 23.38 258.19 22.78C256.06 22.18 253.85 21.71 251.62 21.38C246.81 20.69 242.19 20.6 237.91 20.6C236.83 20.6 235.76 20.6 234.69 20.61H234.52C233.56 20.61 232.6 20.62 231.65 20.62L193.51 20.54L193.1 32.14C192.82 40.03 192.9 47.94 192.99 55.6V55.67C193.03 59 193.06 62.44 193.07 65.79L193.15 134.74H205.12C205.89 134.75 206.92 134.79 208 134.83C209.39 134.88 211.12 134.94 212.88 134.94C219.29 134.94 227.39 134.21 233.22 128.5C236.51 125.27 238.53 121.2 239.36 116.11C239.54 116.11 239.72 116.11 239.9 116.11C247.53 116.11 253.99 115.11 260.22 112.97L260.65 112.81C273.28 107.92 281.83 100 286.8 88.61C292.13 76.38 292.33 60.9 287.32 48.19L287.3 48.21ZM275.78 83.83C271.9 92.73 265.18 98.19 256.3 101.64C246.84 104.89 237.52 104.32 227.75 103.44C227.49 108.72 228.94 115.89 224.8 119.94C220.63 124.03 210.7 122.77 205.12 122.76L205.05 65.79C205.04 54.74 204.69 43.62 205.08 32.59L231.26 32.64C237.44 32.64 243.78 32.4 249.92 33.27C251.62 33.52 253.29 33.88 254.95 34.34C256.6 34.8 258.22 35.37 259.8 36.04C267.38 39.3 273.11 44.91 276.15 52.61C279.91 62.14 279.9 74.4 275.79 83.83H275.78Z" fill="white"/>
<path d="M341.6 53.6602C338.27 51.1402 334.4 50.7302 330.36 50.6602C325.9 51.0002 322.1 52.2802 319.12 55.8202C317.15 58.1602 316.17 60.8202 315.43 63.7502C321.11 63.7902 326.79 63.8002 332.46 63.7702H346.94C346.38 59.7302 344.96 56.2102 341.6 53.6702V53.6602Z" fill="white"/>
<path d="M380.15 67.79C379.98 64.03 379.51 60.48 379.28 59.14C377.23 46.89 370.85 36.46 361.32 29.76C350.7 22.29 339.08 21.36 331.28 21.31H330.57C330.07 21.3 329.56 21.29 329.04 21.29C327.54 21.29 325.56 21.33 323.55 21.6C310.11 23.15 299.15 28.77 291.85 37.85C283.89 47.76 280.32 61.93 282.05 76.72C283.55 89.47 289.08 99.92 298.05 106.92C306.9 113.83 319.1 117.34 334.33 117.34C339.48 117.34 344.94 116.96 351.02 116.18C351.23 116.15 351.48 116.13 351.76 116.1H351.87C355.8 115.68 361.73 115.05 365.88 110.82C368.65 108 369.57 104.85 370.78 97.39C371.9 90.46 371.85 88 371.62 86.54C373.5 85.71 375.14 84.48 376.51 82.86C380.09 78.66 380.36 73.14 380.12 67.8L380.15 67.79ZM367.4 75.06C366.92 75.62 366.52 75.67 365.83 75.75C361.47 76.21 354.84 75.8 350.31 75.8H315.97C316.68 78.4 317.66 80.68 319.64 82.61C325.27 88.11 334.8 86.87 341.97 86.88H357.62C358.2 86.85 358.59 86.9 359.14 87.09C359.49 87.46 359.63 87.66 359.74 88.18C360.02 89.48 358.16 101.55 357.33 102.4C355.97 103.78 351.44 104.02 349.5 104.27C335.43 106.08 317.12 106.58 305.44 97.46C298.42 91.98 294.99 84 293.97 75.32C292.76 65.02 294.56 53.64 301.2 45.37C307.07 38.07 315.9 34.55 325.01 33.52C326.98 33.24 329.18 33.3 331.18 33.32C339.48 33.37 347.49 34.72 354.41 39.58C361.65 44.67 365.99 52.5 367.44 61.13C367.85 63.57 368.95 73.26 367.4 75.08V75.06Z" fill="white"/>
<path d="M388.72 62.4099H372.77V75.4599H388.72V62.4099Z" fill="white"/>
</g>
<defs>
<clipPath id="clip0_185_906">
<rect width="470.96" height="135.33" fill="white"/>
</clipPath>
</defs>
</svg>
