<svg width="125" height="48" viewBox="0 0 125 48" fill="none" xmlns="http://www.w3.org/2000/svg">
<path fill-rule="evenodd" clip-rule="evenodd" d="M47.8242 11.1497C49.2979 11.1497 50.7624 11.1525 52.2263 11.165L58.1007 22.5025V11.1497H61.626V29.1203L57.7537 29.121L51.3495 16.358V29.1203H47.8242V11.1497Z" fill="#151616"/>
<path fill-rule="evenodd" clip-rule="evenodd" d="M101.392 15.5178C105.203 15.5178 108.292 18.6075 108.292 22.4183C108.292 26.2292 105.203 29.3189 101.392 29.3189C97.5809 29.3189 94.4912 26.2292 94.4912 22.4183C94.4912 18.6075 97.5809 15.5178 101.392 15.5178ZM101.392 18.9929C103.284 18.9929 104.817 20.5265 104.817 22.4183C104.817 24.3101 103.284 25.8438 101.392 25.8438C99.4999 25.8438 97.9663 24.3101 97.9663 22.4183C97.9663 20.5265 99.4999 18.9929 101.392 18.9929Z" fill="#151616"/>
<path fill-rule="evenodd" clip-rule="evenodd" d="M69.6193 15.5178C73.4308 15.5178 76.5198 18.6075 76.5198 22.4183C76.5198 26.2292 73.4308 29.3189 69.6193 29.3189C65.8085 29.3189 62.7188 26.2292 62.7188 22.4183C62.7188 18.6075 65.8085 15.5178 69.6193 15.5178ZM69.6193 18.9929C71.5111 18.9929 73.0448 20.5265 73.0448 22.4183C73.0448 24.3101 71.5111 25.8438 69.6193 25.8438C67.7275 25.8438 66.1938 24.3101 66.1938 22.4183C66.1938 20.5265 67.7275 18.9929 69.6193 18.9929Z" fill="#151616"/>
<path fill-rule="evenodd" clip-rule="evenodd" d="M77.6616 15.9157C77.6616 20.3171 77.6616 24.7185 77.6616 29.1206C78.9691 29.1206 80.2759 29.1206 81.5834 29.1206C81.5834 27.0445 81.5834 24.9677 81.5834 22.8923C81.5834 22.3429 81.6672 22.0029 81.8459 21.4759C82.2054 20.4148 82.8121 19.5129 83.8717 18.9042C84.4135 18.5935 84.4742 18.5963 85.0731 18.5963C85.8955 18.5963 86.7185 18.5963 87.5409 18.5963C87.5409 20.9788 87.5409 23.3614 87.5409 25.7446C87.6665 29.6699 91.6993 29.7691 94.6396 28.9712C94.4742 28.0944 94.3087 27.2183 94.1433 26.3401C92.4616 26.7303 91.2637 26.8434 91.2637 24.7352C91.2637 22.6884 91.2637 20.6424 91.2637 18.5963C92.2075 18.5963 93.1506 18.5963 94.0937 18.5963C94.0937 17.6692 94.0937 16.7422 94.0937 15.8158C93.1834 15.8158 92.2731 15.8158 91.3635 15.8158C91.3635 14.5754 91.3635 13.3335 91.3635 12.0923C90.3206 12.0923 89.2784 12.0923 88.2354 12.0923C87.9381 13.3335 87.64 14.5754 87.3419 15.8158C86.6187 15.8158 85.8955 15.8158 85.1723 15.8158C84.225 15.8158 83.3991 16.0644 82.611 16.6138C81.9325 17.087 81.404 17.7628 81.0871 18.6947C80.7066 17.7851 80.3255 16.8755 79.945 15.9645C79.1841 15.9478 78.4225 15.9317 77.6616 15.9157Z" fill="#151616"/>
<path fill-rule="evenodd" clip-rule="evenodd" d="M109.266 15.8483C109.266 20.2909 109.266 24.7349 109.266 29.1782C110.505 29.1782 111.745 29.1782 112.985 29.1782C112.985 26.2379 112.985 23.2975 112.985 20.3572C112.985 19.123 115.957 18.0201 117.197 19.5349C117.525 19.9363 117.495 20.0417 117.495 20.5213C117.495 23.3848 117.495 26.2483 117.495 29.1119C118.756 29.1119 120.018 29.1119 121.28 29.1119C121.28 26.0515 121.28 22.9904 121.28 19.9293C121.28 18.8864 120.783 17.8686 120.139 17.0567C119.199 15.8707 117.851 15.3387 115.906 15.701C114.593 15.9461 113.545 16.7007 112.327 17.9216C112.064 17.241 111.8 16.5611 111.537 15.8804C110.78 15.8707 110.023 15.8588 109.266 15.8483Z" fill="#151616"/>
<mask id="mask0_187_982" style="mask-type:luminance" maskUnits="userSpaceOnUse" x="121" y="15" width="4" height="3">
<path d="M121.165 15.7434H124.059V17.7092H121.165V15.7434Z" fill="white"/>
</mask>
<g mask="url(#mask0_187_982)">
<path fill-rule="evenodd" clip-rule="evenodd" d="M122.01 16.1237H122.459V15.8152H121.251V16.1237H121.7V17.5597H122.01V16.1237ZM124.069 15.8152H123.62L123.355 17.1904H123.351L123.082 15.8152H122.629V17.5597H122.919V16.1021H122.923L123.194 17.5597H123.498L123.775 16.1021H123.779V17.5597H124.069V15.8152Z" fill="#151616"/>
</g>
<mask id="mask1_187_982" style="mask-type:luminance" maskUnits="userSpaceOnUse" x="0" y="6" width="42" height="43">
<path d="M0 6.27173H41.6391V48.0002H0V6.27173Z" fill="white"/>
</mask>
<g mask="url(#mask1_187_982)">
<path fill-rule="evenodd" clip-rule="evenodd" d="M20.7827 47.9894C9.32789 47.988 0.00432585 38.6658 0.00292969 27.2076C0.00432585 15.7514 9.32789 6.4299 20.7827 6.4292C32.2396 6.4299 41.5631 15.7514 41.5631 27.2076C41.5631 38.6658 32.2396 47.988 20.7827 47.9894ZM20.7827 13.0037C16.9921 13.0037 13.4249 14.4809 10.738 17.1636C8.05529 19.8484 6.57605 23.4156 6.57605 27.2076C6.57605 31.0009 8.05529 34.5695 10.7387 37.2557C13.4228 39.9363 16.9914 41.4149 20.7827 41.4149C24.5775 41.4149 28.1446 39.9363 30.8309 37.2522C33.5108 34.5695 34.99 31.0009 34.99 27.2076C34.99 23.4156 33.5108 19.8484 30.8302 17.1622C28.1432 14.4809 24.574 13.0037 20.7827 13.0037Z" fill="#FCBB17"/>
</g>
<path fill-rule="evenodd" clip-rule="evenodd" d="M43.4194 4.8481H45.0404V3.22925H43.4194V4.8481Z" fill="#FCBB17"/>
<path fill-rule="evenodd" clip-rule="evenodd" d="M43.4194 1.62304H45.0404V0H43.4194V1.62304Z" fill="#FCBB17"/>
<path fill-rule="evenodd" clip-rule="evenodd" d="M38.8608 6.41946H40.3757V4.83691H38.8608V6.41946Z" fill="#FCBB17"/>
<path fill-rule="evenodd" clip-rule="evenodd" d="M35.8608 9.45662H37.3868V7.94458H35.8608V9.45662Z" fill="#151616"/>
<path fill-rule="evenodd" clip-rule="evenodd" d="M40.3755 7.94505H42.0718V6.42114H40.3755V7.94505Z" fill="#151616"/>
<path fill-rule="evenodd" clip-rule="evenodd" d="M34.3418 7.94506H35.8608V6.49585H34.3418V7.94506Z" fill="#151616"/>
<path fill-rule="evenodd" clip-rule="evenodd" d="M38.8608 9.45662H40.3757V7.94458H38.8608V9.45662Z" fill="#151616"/>
<path fill-rule="evenodd" clip-rule="evenodd" d="M41.8184 3.22933H43.4205V1.62305H41.8184V3.22933Z" fill="#151616"/>
<path fill-rule="evenodd" clip-rule="evenodd" d="M38.8608 4.83696H41.8179V3.22998H38.8608V4.83696Z" fill="#151616"/>
<path fill-rule="evenodd" clip-rule="evenodd" d="M37.3872 7.94477H38.8609V4.83691H37.3872V7.94477Z" fill="#151616"/>
<path fill-rule="evenodd" clip-rule="evenodd" d="M37.3873 9.45703V10.9816H35.8613V9.45703H33.33V10.5558H31.973V11.9115H33.4885V13.4214H31.973V11.9115H30.3639V14.2801H28.8407V15.7914H27.8292V17.309H26.7185C25.4696 19.1659 22.3422 24.9509 21.3956 27.309C17.9883 22.5649 15.3419 20.6843 13.2574 20.0036C12.1321 19.6644 10.7778 20.8895 12.6459 22.8162C16.9342 27.5324 18.2857 31.4375 19.5883 34.5537C20.278 36.1956 23.3698 36.4497 23.9925 34.7792C25.3126 31.242 27.2253 27.2706 29.4913 24.0092V22.3171H30.7011V20.7932H31.973V19.0263H33.4941V17.3244H31.9569V15.7761H33.4941V17.3244H34.9977L34.9929 15.7914H36.2005V13.9422H37.5555V12.6689H38.8609V9.45703H37.3873Z" fill="#151616"/>
<path fill-rule="evenodd" clip-rule="evenodd" d="M65.032 41.3981L64.6055 42.0739C64.9329 42.3307 65.3957 42.6016 65.9744 42.7992C66.477 42.9709 67.0676 43.0861 67.7322 43.0861C68.7772 43.0861 69.5898 42.8257 70.1426 42.3726C70.7088 41.9091 71.0069 41.2376 71.0069 40.4334C71.0069 39.5796 70.692 38.9932 70.1838 38.5492C69.6596 38.092 68.9252 37.7744 68.1105 37.4721C67.3622 37.1964 66.8386 36.9534 66.4959 36.6595C66.1308 36.3461 65.9709 35.9838 65.9709 35.4847C65.9709 34.9995 66.1112 34.5988 66.4449 34.3154C66.7681 34.0417 67.2666 33.8882 67.9884 33.8882C68.5796 33.8882 69.0606 33.9817 69.4578 34.1109C69.7775 34.2156 70.0414 34.344 70.2648 34.4648L70.6041 33.7213C70.2892 33.5538 69.9681 33.4058 69.5884 33.2955C69.1542 33.1705 68.6348 33.0938 67.9479 33.0938C66.9838 33.0938 66.2592 33.3325 65.7692 33.7332C65.2477 34.1604 64.9887 34.7761 64.9887 35.4847C64.9887 36.3126 65.2749 36.8794 65.7392 37.3081C66.2152 37.7485 66.8868 38.055 67.6316 38.3482C68.3563 38.6337 68.9252 38.8732 69.3224 39.1887C69.7426 39.5217 69.966 39.9287 69.966 40.5325C69.966 41.0889 69.751 41.5224 69.3622 41.8198C68.9782 42.1143 68.4268 42.2686 67.7517 42.2686C67.1081 42.2686 66.5601 42.1444 66.0889 41.9622C65.6826 41.8037 65.335 41.6026 65.032 41.3981Z" fill="#989899"/>
<path fill-rule="evenodd" clip-rule="evenodd" d="M71.6396 36.0066H72.6965L74.5967 42.1651L76.4117 36.0066H77.4393L74.9674 43.8083C74.5681 45.0795 73.8972 45.7518 72.6253 45.7518C72.3677 45.7518 72.0683 45.6945 71.854 45.6226L71.9831 44.852C72.1395 44.8799 72.3245 44.9225 72.5541 44.9225C73.4114 44.9225 73.9105 44.4094 74.1534 43.5801L71.6396 36.0066Z" fill="#989899"/>
<path fill-rule="evenodd" clip-rule="evenodd" d="M86.1152 35.8784C87.5316 35.8784 87.8876 37.0638 87.8876 38.2212V43.151H86.8586V38.2351C86.8586 37.4791 86.7449 36.7629 85.8011 36.7629C85.1574 36.7629 84.4866 37.1643 83.8164 37.8505V43.151H82.7867V38.2351C82.7867 37.4791 82.6737 36.7629 81.7285 36.7629C81.0716 36.7629 80.3874 37.2208 79.7431 37.8645V43.151H78.7148V36.0062H79.3005L79.6007 37.1775C80.2576 36.4781 81.0716 35.8784 82.044 35.8784C82.9724 35.8784 83.3724 36.3929 83.6573 37.1371C84.3295 36.4069 85.1881 35.8784 86.1152 35.8784Z" fill="#989899"/>
<path fill-rule="evenodd" clip-rule="evenodd" d="M93.736 39.3653C92.1779 39.6648 91.1497 39.9943 90.7636 40.4795C90.5786 40.7077 90.5214 40.922 90.5214 41.2501C90.5214 41.9796 90.8781 42.4215 91.7346 42.4215C92.5493 42.4215 93.2495 41.9936 93.736 41.6222V39.3653ZM93.736 38.3217C93.736 37.2781 93.4212 36.7489 92.2917 36.7489C91.5629 36.7489 90.9067 37.0498 90.2645 37.3926L89.8784 36.6924C90.55 36.2358 91.32 35.8784 92.379 35.8784C94.1074 35.8784 94.765 36.8362 94.765 38.3922V43.151H94.1793C94.1793 43.151 93.8784 42.2784 93.8659 42.2784C93.364 42.7789 92.5633 43.2655 91.6355 43.2655C90.3936 43.2655 89.4771 42.4788 89.4771 41.3074C89.4771 40.5207 89.7933 39.9643 90.4767 39.5636C91.1343 39.1789 92.3217 38.8934 93.736 38.6791C93.736 38.6638 93.736 38.3217 93.736 38.3217Z" fill="#989899"/>
<path fill-rule="evenodd" clip-rule="evenodd" d="M97.0532 36.0062H97.6382L97.9384 37.2208C98.5967 36.4781 99.4386 35.8784 100.524 35.8784C102.04 35.8784 102.439 37.0638 102.439 38.2212V43.151H101.412V38.2351C101.412 37.4791 101.238 36.7629 100.21 36.7629C99.4825 36.7629 98.7244 37.2208 98.0822 37.907V43.151H97.0532V36.0062Z" fill="#989899"/>
<path fill-rule="evenodd" clip-rule="evenodd" d="M103.862 36.7492V36.0065H104.963L105.263 33.9646H105.962V36.0065H107.562V36.7492H105.962V41.3943C105.962 42.0798 106.077 42.4651 106.762 42.4651C107.063 42.4651 107.262 42.4093 107.592 42.322L107.748 43.0362C107.477 43.1653 107.092 43.2658 106.719 43.2658C105.462 43.2658 104.935 42.6362 104.935 41.4648V36.7492H103.862Z" fill="#989899"/>
<path fill-rule="evenodd" clip-rule="evenodd" d="M113.188 39.1217C113.132 37.4945 112.587 36.6645 111.517 36.6645C110.545 36.6645 109.873 37.4351 109.789 39.1217H113.188ZM111.688 42.4355C112.517 42.4355 113.032 42.1367 113.646 41.722L114.087 42.3217C113.403 42.9074 112.774 43.2655 111.603 43.2655C109.817 43.2655 108.688 41.8365 108.688 39.5789C108.688 37.3646 109.803 35.8784 111.502 35.8784C113.245 35.8784 114.246 37.1643 114.246 39.6369V39.8645H109.774C109.845 41.5364 110.402 42.4355 111.688 42.4355Z" fill="#989899"/>
<path fill-rule="evenodd" clip-rule="evenodd" d="M115.507 39.6369C115.507 37.8791 116.221 35.8784 118.407 35.8784C119.322 35.8784 120.008 36.136 120.593 36.6212L120.165 37.3067C119.722 36.9653 119.107 36.7077 118.407 36.7077C116.778 36.7077 116.594 38.4362 116.594 39.6501C116.594 40.7929 116.822 42.4355 118.464 42.4355C119.222 42.4355 119.75 42.1507 120.236 41.722L120.722 42.3077C120.236 42.8222 119.491 43.2655 118.407 43.2655C116.279 43.2655 115.507 41.3507 115.507 39.6369Z" fill="#989899"/>
<path fill-rule="evenodd" clip-rule="evenodd" d="M54.5479 36.0066H55.6047L57.5049 42.1651L59.3206 36.0066H60.3482L57.8763 43.8083C57.4763 45.0795 56.8054 45.7518 55.5342 45.7518C55.2759 45.7518 54.9772 45.6945 54.7622 45.6226L54.8913 44.852C55.0484 44.8799 55.2334 44.9225 55.4623 44.9225C56.3203 44.9225 56.8187 44.4094 57.0623 43.5801L54.5479 36.0066Z" fill="#989899"/>
<path fill-rule="evenodd" clip-rule="evenodd" d="M52.6128 38.8007C52.6295 38.9445 52.6428 39.0953 52.6519 39.2454C52.6609 39.4011 52.6658 39.5553 52.6658 39.697C52.6658 39.7899 52.663 39.8827 52.6575 39.9728C52.6526 40.0635 52.6449 40.1529 52.6344 40.2387C52.6239 40.326 52.6107 40.4112 52.5953 40.4949C52.5793 40.578 52.5611 40.6604 52.5402 40.7407C52.5192 40.8209 52.4955 40.897 52.4704 40.971C52.4438 41.0457 52.4159 41.1162 52.3845 41.1853C52.3538 41.2531 52.3203 41.3194 52.284 41.3829C52.2484 41.4471 52.2093 41.5072 52.1681 41.5651L52.1667 41.5672C52.1255 41.6237 52.0815 41.6789 52.0355 41.7285C51.9894 41.7801 51.9398 41.8283 51.8882 41.873C51.8365 41.9176 51.7821 41.9602 51.7255 41.9979C51.6697 42.0363 51.6103 42.0705 51.5489 42.1033C51.4882 42.134 51.4246 42.162 51.3583 42.1857C51.292 42.2094 51.2236 42.2297 51.1531 42.245C51.0819 42.2604 51.0079 42.273 50.9325 42.2799C50.8564 42.2883 50.7782 42.2918 50.6979 42.2918C50.6449 42.2918 50.5918 42.2904 50.5409 42.2862C50.4892 42.282 50.439 42.2764 50.3894 42.2681C50.3391 42.2604 50.291 42.2506 50.2442 42.2381C50.2065 42.2297 50.1695 42.2178 50.1332 42.2059L50.1255 42.2031L50.1234 42.2018L50.106 42.1962C50.0606 42.1801 50.0166 42.1641 49.9747 42.1466C49.9328 42.1298 49.8917 42.1117 49.8505 42.0922C49.8107 42.074 49.7709 42.0538 49.7318 42.0321C49.6934 42.0112 49.6557 41.9895 49.6194 41.9672V41.9665H49.6187C49.5831 41.9435 49.5482 41.9204 49.5161 41.8974C49.4826 41.8744 49.4505 41.8506 49.4191 41.8262C49.3883 41.8011 49.3576 41.7759 49.329 41.7508C49.3004 41.725 49.2725 41.6991 49.2466 41.6733C49.2208 41.6482 49.1957 41.6216 49.1719 41.5958C49.1482 41.5707 49.1259 41.5456 49.1042 41.5225C49.0833 41.4974 49.063 41.4737 49.0442 41.4506C49.026 41.4276 49.0086 41.4045 48.9918 41.3822L48.9876 41.3766L48.9842 41.371V37.6621L48.9904 37.6559L48.9967 37.651C49.0533 37.5951 49.1126 37.5421 49.1733 37.4925C49.2348 37.4408 49.2976 37.3934 49.3625 37.3487L49.3674 37.3452C49.4302 37.3012 49.4965 37.26 49.5643 37.2209C49.6334 37.1812 49.7046 37.1428 49.7786 37.1079C49.8526 37.073 49.928 37.0415 50.0041 37.0157C50.0801 36.9892 50.1583 36.9675 50.2372 36.9501C50.3161 36.9326 50.3964 36.9194 50.478 36.9117C50.5597 36.9019 50.6428 36.8984 50.7266 36.8984C50.7803 36.8984 50.8348 36.8998 50.8885 36.904C50.943 36.9089 50.9981 36.9152 51.0533 36.9243C51.1091 36.934 51.1636 36.9438 51.218 36.9578C51.2725 36.9696 51.3283 36.9857 51.3835 37.0031C51.4379 37.0199 51.4924 37.0415 51.5461 37.066C51.5992 37.0918 51.6522 37.1197 51.7046 37.1518C51.7569 37.184 51.8079 37.2203 51.8582 37.2593C51.9084 37.2984 51.958 37.341 52.0061 37.3871C52.0543 37.4346 52.1011 37.4848 52.1451 37.54C52.189 37.5951 52.2309 37.6552 52.27 37.7201C52.3098 37.7843 52.3468 37.852 52.3817 37.926C52.4166 37.9986 52.4494 38.0754 52.4801 38.1571C52.5081 38.2318 52.5325 38.3239 52.5541 38.4286C52.5772 38.5424 52.5967 38.6681 52.6128 38.8V38.8007ZM53.6341 40.4552C53.6543 40.3253 53.669 40.1899 53.6794 40.0489C53.6899 39.9079 53.6948 39.7613 53.6948 39.6098C53.6948 39.4897 53.6913 39.3522 53.6843 39.2112C53.678 39.075 53.669 38.9347 53.6564 38.8007C53.6452 38.6799 53.6313 38.5613 53.6152 38.4538C53.6006 38.3546 53.5838 38.266 53.565 38.1941C53.5433 38.1103 53.5203 38.03 53.4952 37.9518C53.47 37.8744 53.4428 37.799 53.4142 37.7278C53.3856 37.6559 53.3548 37.5867 53.3227 37.5211C53.2906 37.4555 53.2564 37.3927 53.2201 37.3326C53.1838 37.2719 53.1461 37.2133 53.107 37.1588C53.0686 37.1037 53.0288 37.0506 52.9876 37.0011C52.9465 36.9501 52.9032 36.9019 52.8592 36.8566C52.8152 36.8112 52.7691 36.7686 52.7224 36.7281C52.6749 36.689 52.6267 36.6492 52.5779 36.6122C52.529 36.5752 52.4801 36.541 52.4313 36.5075C52.3817 36.4747 52.3321 36.4447 52.2819 36.4154C52.2323 36.3867 52.1814 36.3602 52.1311 36.3358C52.0801 36.3107 52.0285 36.2883 51.9768 36.2667C51.9259 36.2457 51.8742 36.2262 51.8219 36.208C51.7709 36.1913 51.7185 36.1759 51.6662 36.1613C51.6145 36.148 51.5629 36.1361 51.5112 36.1257C51.4589 36.1166 51.4072 36.1075 51.3562 36.0991C51.3053 36.0915 51.2557 36.0859 51.2082 36.0803C51.1594 36.0754 51.1105 36.0719 51.063 36.0691C51.0156 36.067 50.9695 36.0656 50.9234 36.0656C50.825 36.0656 50.7294 36.0698 50.6379 36.0782C50.5458 36.0873 50.4564 36.0998 50.3684 36.1166C50.2812 36.1333 50.1974 36.155 50.1157 36.1801C50.0341 36.2059 49.9545 36.2346 49.8777 36.2681C49.8016 36.3023 49.7276 36.34 49.6564 36.3791C49.5852 36.4203 49.5161 36.4635 49.4491 36.5117C49.3821 36.5578 49.3171 36.6087 49.255 36.6632C49.1929 36.7176 49.1328 36.7749 49.0756 36.8356L49.0693 36.8419L49.0637 36.8482H48.9842V33.082H47.9971V42.9417H48.7301L48.9465 42.2415L48.9506 42.2269L48.9548 42.2129H49.0288L49.0351 42.2227L49.0407 42.2325C49.0491 42.2457 49.0595 42.2618 49.0721 42.2792C49.0847 42.2967 49.0986 42.3148 49.114 42.3344L49.1252 42.349H49.1259V42.3497C49.1384 42.3651 49.1517 42.3812 49.165 42.3972C49.1845 42.4202 49.2054 42.444 49.2264 42.4684C49.248 42.4922 49.2711 42.5166 49.2962 42.5417C49.3213 42.5655 49.3486 42.5892 49.3772 42.6136C49.4065 42.6381 49.4379 42.6625 49.4707 42.6869C49.5028 42.71 49.537 42.7337 49.5726 42.7574H49.5733L49.5747 42.7588C49.6103 42.7826 49.648 42.8056 49.6878 42.8272C49.7276 42.8496 49.7702 42.8712 49.8142 42.8915C49.8582 42.9124 49.9049 42.9326 49.9545 42.9522C49.9978 42.9689 50.0431 42.9857 50.0899 43.0018L50.1067 43.0073C50.159 43.0241 50.2135 43.0394 50.2693 43.052C50.3252 43.0653 50.3838 43.0757 50.4438 43.0848C50.5046 43.0932 50.5674 43.1002 50.6323 43.1037C50.6965 43.1086 50.7636 43.1107 50.832 43.1107C50.9241 43.1107 51.0156 43.1058 51.1056 43.0974C51.195 43.089 51.285 43.0757 51.3737 43.0576C51.4623 43.0401 51.5503 43.0192 51.6376 42.992C51.722 42.9668 51.8058 42.9368 51.8875 42.9033L51.8945 42.9005C51.9803 42.8656 52.0641 42.8258 52.1444 42.7826C52.2253 42.7386 52.3035 42.6897 52.3796 42.6374C52.455 42.5843 52.5283 42.5264 52.5995 42.4642C52.6707 42.4021 52.7398 42.3351 52.8061 42.2632L52.8124 42.2569C52.8767 42.1871 52.9381 42.1131 52.9967 42.0342C53.0568 41.9532 53.1133 41.8674 53.1671 41.7766C53.2208 41.6866 53.2711 41.5909 53.3185 41.4911C53.366 41.3906 53.41 41.2852 53.4512 41.1756C53.4917 41.0653 53.5273 40.9501 53.558 40.8307C53.5887 40.7107 53.6138 40.585 53.6341 40.4552Z" fill="#989899"/>
</svg>
