<svg width="63" height="24" viewBox="0 0 63 24" fill="none" xmlns="http://www.w3.org/2000/svg">
<path fill-rule="evenodd" clip-rule="evenodd" d="M23.9121 5.57471C24.6489 5.57471 25.3812 5.5761 26.1132 5.58239L29.0503 11.2511V5.57471H30.813V14.56L28.8769 14.5604L25.6748 8.1789V14.56H23.9121V5.57471Z" fill="#151616"/>
<path fill-rule="evenodd" clip-rule="evenodd" d="M50.6959 7.75879C52.6013 7.75879 54.1461 9.30364 54.1461 11.2091C54.1461 13.1145 52.6013 14.6593 50.6959 14.6593C48.7905 14.6593 47.2456 13.1145 47.2456 11.2091C47.2456 9.30364 48.7905 7.75879 50.6959 7.75879ZM50.6959 9.49631C51.6418 9.49631 52.4086 10.2632 52.4086 11.2091C52.4086 12.1549 51.6418 12.9218 50.6959 12.9218C49.75 12.9218 48.9831 12.1549 48.9831 11.2091C48.9831 10.2632 49.75 9.49631 50.6959 9.49631Z" fill="#151616"/>
<path fill-rule="evenodd" clip-rule="evenodd" d="M34.8096 7.75879C36.7154 7.75879 38.2599 9.30364 38.2599 11.2091C38.2599 13.1145 36.7154 14.6593 34.8096 14.6593C32.9042 14.6593 31.3594 13.1145 31.3594 11.2091C31.3594 9.30364 32.9042 7.75879 34.8096 7.75879ZM34.8096 9.49631C35.7555 9.49631 36.5224 10.2632 36.5224 11.2091C36.5224 12.1549 35.7555 12.9218 34.8096 12.9218C33.8637 12.9218 33.0969 12.1549 33.0969 11.2091C33.0969 10.2632 33.8637 9.49631 34.8096 9.49631Z" fill="#151616"/>
<path fill-rule="evenodd" clip-rule="evenodd" d="M38.8311 7.95784C38.8311 10.1585 38.8311 12.3592 38.8311 14.5603C39.4848 14.5603 40.1382 14.5603 40.792 14.5603C40.792 13.5222 40.792 12.4838 40.792 11.4461C40.792 11.1714 40.8338 11.0015 40.9232 10.7379C41.103 10.2074 41.4063 9.75644 41.9361 9.45208C42.207 9.29675 42.2373 9.29815 42.5368 9.29815C42.948 9.29815 43.3595 9.29815 43.7707 9.29815C43.7707 10.4894 43.7707 11.6807 43.7707 12.8723C43.8335 14.835 45.8499 14.8845 47.3201 14.4856C47.2373 14.0472 47.1546 13.6091 47.0719 13.1701C46.2311 13.3652 45.6321 13.4217 45.6321 12.3676C45.6321 11.3442 45.6321 10.3212 45.6321 9.29815C46.104 9.29815 46.5756 9.29815 47.0471 9.29815C47.0471 8.83462 47.0471 8.3711 47.0471 7.90792C46.592 7.90792 46.1368 7.90792 45.682 7.90792C45.682 7.28768 45.682 6.66674 45.682 6.04614C45.1605 6.04614 44.6394 6.04614 44.118 6.04614C43.9693 6.66674 43.8202 7.28768 43.6712 7.90792C43.3096 7.90792 42.948 7.90792 42.5864 7.90792C42.1127 7.90792 41.6998 8.03218 41.3057 8.30688C40.9665 8.54352 40.7023 8.8814 40.5438 9.34736C40.3536 8.89256 40.163 8.43777 39.9728 7.98227C39.5923 7.97389 39.2115 7.96586 38.8311 7.95784Z" fill="#151616"/>
<path fill-rule="evenodd" clip-rule="evenodd" d="M54.6328 7.92417C54.6328 10.1455 54.6328 12.3674 54.6328 14.5891C55.2527 14.5891 55.8726 14.5891 56.4925 14.5891C56.4925 13.1189 56.4925 11.6488 56.4925 10.1786C56.4925 9.56151 57.9787 9.01003 58.5986 9.76745C58.7627 9.96815 58.7473 10.0209 58.7473 10.2606C58.7473 11.6924 58.7473 13.1242 58.7473 14.5559C59.378 14.5559 60.0091 14.5559 60.6398 14.5559C60.6398 13.0257 60.6398 11.4952 60.6398 9.96466C60.6398 9.44319 60.3916 8.93429 60.0695 8.52836C59.5997 7.93534 58.9253 7.66937 57.9529 7.85052C57.2963 7.97303 56.7724 8.35035 56.1634 8.96082C56.0318 8.6205 55.9002 8.28054 55.7686 7.94022C55.3899 7.93534 55.0115 7.9294 54.6328 7.92417Z" fill="#151616"/>
<mask id="mask0_187_944" style="mask-type:luminance" maskUnits="userSpaceOnUse" x="60" y="7" width="3" height="2">
<path d="M60.5825 7.87158H62.03V8.85448H60.5825V7.87158Z" fill="white"/>
</mask>
<g mask="url(#mask0_187_944)">
<path fill-rule="evenodd" clip-rule="evenodd" d="M61.0052 8.06175H61.2297V7.90747H60.6255V8.06175H60.8499V8.77972H61.0052V8.06175ZM62.0346 7.90747H61.8101L61.6775 8.59508H61.6754L61.541 7.90747H61.3145V8.77972H61.4593V8.05093H61.4614L61.5969 8.77972H61.749L61.8876 8.05093H61.8897V8.77972H62.0346V7.90747Z" fill="#151616"/>
</g>
<mask id="mask1_187_944" style="mask-type:luminance" maskUnits="userSpaceOnUse" x="0" y="3" width="21" height="21">
<path d="M0 3.13574H20.8195V24H0V3.13574Z" fill="white"/>
</mask>
<g mask="url(#mask1_187_944)">
<path fill-rule="evenodd" clip-rule="evenodd" d="M10.3913 23.9947C4.66394 23.994 0.00216292 19.3329 0.00146484 13.6038C0.00216292 7.87568 4.66394 3.21495 10.3913 3.2146C16.1198 3.21495 20.7816 7.87568 20.7816 13.6038C20.7816 19.3329 16.1198 23.994 10.3913 23.9947ZM10.3913 6.50186C8.49605 6.50186 6.71246 7.24043 5.369 8.58179C4.02764 9.9242 3.28803 11.7078 3.28803 13.6038C3.28803 15.5005 4.02764 17.2848 5.36935 18.6279C6.71141 19.9682 8.49571 20.7074 10.3913 20.7074C12.2887 20.7074 14.0723 19.9682 15.4154 18.6261C16.7554 17.2848 17.495 15.5005 17.495 13.6038C17.495 11.7078 16.7554 9.9242 15.4151 8.58109C14.0716 7.24043 12.287 6.50186 10.3913 6.50186Z" fill="#FCBB17"/>
</g>
<path fill-rule="evenodd" clip-rule="evenodd" d="M21.71 2.42417H22.5204V1.61475H21.71V2.42417Z" fill="#FCBB17"/>
<path fill-rule="evenodd" clip-rule="evenodd" d="M21.71 0.811518H22.5204V0H21.71V0.811518Z" fill="#FCBB17"/>
<path fill-rule="evenodd" clip-rule="evenodd" d="M19.4307 3.20973H20.1881V2.41846H19.4307V3.20973Z" fill="#FCBB17"/>
<path fill-rule="evenodd" clip-rule="evenodd" d="M17.9307 4.72819H18.6937V3.97217H17.9307V4.72819Z" fill="#151616"/>
<path fill-rule="evenodd" clip-rule="evenodd" d="M20.1875 3.9724H21.0357V3.21045H20.1875V3.9724Z" fill="#151616"/>
<path fill-rule="evenodd" clip-rule="evenodd" d="M17.1709 3.97265H17.9304V3.24805H17.1709V3.97265Z" fill="#151616"/>
<path fill-rule="evenodd" clip-rule="evenodd" d="M19.4307 4.72819H20.1881V3.97217H19.4307V4.72819Z" fill="#151616"/>
<path fill-rule="evenodd" clip-rule="evenodd" d="M20.9092 1.61466H21.7102V0.811523H20.9092V1.61466Z" fill="#151616"/>
<path fill-rule="evenodd" clip-rule="evenodd" d="M19.4307 2.41848H20.9092V1.61499H19.4307V2.41848Z" fill="#151616"/>
<path fill-rule="evenodd" clip-rule="evenodd" d="M18.6934 3.97238H19.4302V2.41846H18.6934V3.97238Z" fill="#151616"/>
<path fill-rule="evenodd" clip-rule="evenodd" d="M18.6939 4.72852V5.49082H17.9309V4.72852H16.6653V5.2779H15.9867V5.95574H16.7445V6.71071H15.9867V5.95574H15.1822V7.14003H14.4206V7.89571H13.9148V8.65452H13.3595C12.7351 9.58296 11.1714 12.4755 10.6981 13.6545C8.9944 11.2824 7.67119 10.3421 6.62896 10.0018C6.06631 9.83218 5.38917 10.4447 6.3232 11.4081C8.46735 13.7662 9.14309 15.7187 9.7944 17.2769C10.1393 18.0978 11.6852 18.2248 11.9965 17.3896C12.6565 15.621 13.6129 13.6353 14.7459 12.0046V11.1585H15.3508V10.3966H15.9867V9.51316H16.7473V8.6622H15.9787V7.88803H16.7473V8.6622H17.4991L17.4967 7.89571H18.1005V6.9711H18.778V6.33445H19.4307V4.72852H18.6939Z" fill="#151616"/>
<path fill-rule="evenodd" clip-rule="evenodd" d="M32.516 20.6991L32.3027 21.0369C32.4664 21.1654 32.6978 21.3008 32.9872 21.3996C33.2385 21.4854 33.5338 21.543 33.8661 21.543C34.3886 21.543 34.7949 21.4128 35.0713 21.1863C35.3544 20.9546 35.5034 20.6188 35.5034 20.2167C35.5034 19.7898 35.346 19.4966 35.0919 19.2746C34.8298 19.046 34.4626 18.8872 34.0553 18.7361C33.6811 18.5982 33.4193 18.4767 33.2479 18.3298C33.0654 18.1731 32.9855 17.9919 32.9855 17.7423C32.9855 17.4998 33.0556 17.2994 33.2225 17.1577C33.3841 17.0209 33.6333 16.9441 33.9942 16.9441C34.2898 16.9441 34.5303 16.9909 34.7289 17.0554C34.8888 17.1078 35.0207 17.172 35.1324 17.2324L35.302 16.8607C35.1446 16.7769 34.9841 16.7029 34.7942 16.6477C34.5771 16.5853 34.3174 16.5469 33.9739 16.5469C33.4919 16.5469 33.1296 16.6662 32.8846 16.8666C32.6239 17.0802 32.4944 17.3881 32.4944 17.7423C32.4944 18.1563 32.6375 18.4397 32.8696 18.654C33.1076 18.8743 33.4434 19.0275 33.8158 19.1741C34.1781 19.3169 34.4626 19.4366 34.6612 19.5943C34.8713 19.7608 34.983 19.9643 34.983 20.2662C34.983 20.5444 34.8755 20.7612 34.6811 20.9099C34.4891 21.0572 34.2134 21.1343 33.8759 21.1343C33.554 21.1343 33.28 21.0722 33.0444 20.9811C32.8413 20.9018 32.6675 20.8013 32.516 20.6991Z" fill="#989899"/>
<path fill-rule="evenodd" clip-rule="evenodd" d="M35.8198 18.0034H36.3483L37.2984 21.0826L38.2059 18.0034H38.7196L37.4837 21.9043C37.284 22.5399 36.9486 22.876 36.3127 22.876C36.1839 22.876 36.0341 22.8474 35.927 22.8114L35.9916 22.4261C36.0697 22.4401 36.1622 22.4614 36.2771 22.4614C36.7057 22.4614 36.9553 22.2048 37.0767 21.7902L35.8198 18.0034Z" fill="#989899"/>
<path fill-rule="evenodd" clip-rule="evenodd" d="M43.0576 17.9392C43.7658 17.9392 43.9438 18.5319 43.9438 19.1106V21.5755H43.4293V19.1176C43.4293 18.7396 43.3724 18.3814 42.9005 18.3814C42.5787 18.3814 42.2433 18.5821 41.9082 18.9252V21.5755H41.3934V19.1176C41.3934 18.7396 41.3368 18.3814 40.8642 18.3814C40.5358 18.3814 40.1937 18.6104 39.8716 18.9322V21.5755H39.3574V18.0031H39.6503L39.8004 18.5888C40.1288 18.239 40.5358 17.9392 41.022 17.9392C41.4862 17.9392 41.6862 18.1965 41.8286 18.5685C42.1648 18.2034 42.5941 17.9392 43.0576 17.9392Z" fill="#989899"/>
<path fill-rule="evenodd" clip-rule="evenodd" d="M46.8678 19.6827C46.0887 19.8324 45.5746 19.9971 45.3816 20.2397C45.2891 20.3539 45.2604 20.461 45.2604 20.6251C45.2604 20.9898 45.4388 21.2108 45.8671 21.2108C46.2744 21.2108 46.6245 20.9968 46.8678 20.8111V19.6827ZM46.8678 19.1608C46.8678 18.639 46.7104 18.3745 46.1456 18.3745C45.7812 18.3745 45.4531 18.5249 45.132 18.6963L44.939 18.3462C45.2748 18.1179 45.6597 17.9392 46.1892 17.9392C47.0535 17.9392 47.3823 18.4181 47.3823 19.1961V21.5755H47.0894C47.0894 21.5755 46.939 21.1392 46.9327 21.1392C46.6817 21.3895 46.2814 21.6328 45.8175 21.6328C45.1966 21.6328 44.7383 21.2394 44.7383 20.6537C44.7383 20.2603 44.8964 19.9821 45.2381 19.7818C45.5669 19.5895 46.1606 19.4467 46.8678 19.3396C46.8678 19.3319 46.8678 19.1608 46.8678 19.1608Z" fill="#989899"/>
<path fill-rule="evenodd" clip-rule="evenodd" d="M48.5264 18.0031H48.8189L48.969 18.6104C49.2981 18.239 49.719 17.9392 50.2618 17.9392C51.0196 17.9392 51.2192 18.5319 51.2192 19.1106V21.5755H50.7058V19.1176C50.7058 18.7396 50.6189 18.3814 50.1047 18.3814C49.741 18.3814 49.362 18.6104 49.0409 18.9535V21.5755H48.5264V18.0031Z" fill="#989899"/>
<path fill-rule="evenodd" clip-rule="evenodd" d="M51.9312 18.3747V18.0034H52.4816L52.6317 16.9824H52.9811V18.0034H53.7814V18.3747H52.9811V20.6973C52.9811 21.04 53.0387 21.2327 53.3814 21.2327C53.5315 21.2327 53.6313 21.2048 53.7964 21.1611L53.8743 21.5182C53.7388 21.5828 53.5462 21.633 53.3598 21.633C52.7312 21.633 52.4676 21.3182 52.4676 20.7325V18.3747H51.9312Z" fill="#989899"/>
<path fill-rule="evenodd" clip-rule="evenodd" d="M56.5938 19.5608C56.5659 18.7472 56.2936 18.3322 55.7585 18.3322C55.2723 18.3322 54.9366 18.7176 54.8943 19.5608H56.5938ZM55.8441 21.2177C56.2584 21.2177 56.516 21.0684 56.8231 20.861L57.0437 21.1608C56.7017 21.4537 56.3872 21.6328 55.8015 21.6328C54.9083 21.6328 54.3442 20.9183 54.3442 19.7895C54.3442 18.6823 54.9013 17.9392 55.7512 17.9392C56.6224 17.9392 57.1229 18.5821 57.1229 19.8184V19.9322H54.887C54.9226 20.7682 55.2008 21.2177 55.8441 21.2177Z" fill="#989899"/>
<path fill-rule="evenodd" clip-rule="evenodd" d="M57.7539 19.8184C57.7539 18.9396 58.111 17.9392 59.2038 17.9392C59.6614 17.9392 60.0042 18.068 60.2967 18.3106L60.0827 18.6533C59.8611 18.4827 59.5539 18.3539 59.2038 18.3539C58.3892 18.3539 58.297 19.2181 58.297 19.8251C58.297 20.3965 58.4111 21.2177 59.2324 21.2177C59.6111 21.2177 59.8754 21.0753 60.1183 20.861L60.3612 21.1539C60.1183 21.4111 59.7459 21.6328 59.2038 21.6328C58.1399 21.6328 57.7539 20.6753 57.7539 19.8184Z" fill="#989899"/>
<path fill-rule="evenodd" clip-rule="evenodd" d="M27.2739 18.0034H27.8024L28.7525 21.0826L29.6603 18.0034H30.1741L28.9381 21.9043C28.7381 22.5399 28.4027 22.876 27.7671 22.876C27.638 22.876 27.4886 22.8474 27.3811 22.8114L27.4457 22.4261C27.5242 22.4401 27.6167 22.4614 27.7312 22.4614C28.1601 22.4614 28.4094 22.2048 28.5312 21.7902L27.2739 18.0034Z" fill="#989899"/>
<path fill-rule="evenodd" clip-rule="evenodd" d="M26.3064 19.4004C26.3148 19.4723 26.3214 19.5476 26.3259 19.6227C26.3305 19.7005 26.3329 19.7777 26.3329 19.8485C26.3329 19.8949 26.3315 19.9414 26.3287 19.9864C26.3263 20.0318 26.3224 20.0764 26.3172 20.1194C26.312 20.163 26.3053 20.2056 26.2977 20.2475C26.2896 20.289 26.2806 20.3302 26.2701 20.3703C26.2596 20.4105 26.2477 20.4485 26.2352 20.4855C26.2219 20.5229 26.208 20.5581 26.1923 20.5927C26.1769 20.6265 26.1601 20.6597 26.142 20.6915C26.1242 20.7236 26.1046 20.7536 26.0841 20.7826L26.0834 20.7836C26.0628 20.8119 26.0408 20.8394 26.0177 20.8642C25.9947 20.8901 25.9699 20.9141 25.9441 20.9365C25.9183 20.9588 25.891 20.9801 25.8628 20.999C25.8348 21.0182 25.8052 21.0353 25.7745 21.0517C25.7441 21.067 25.7123 21.081 25.6792 21.0928C25.646 21.1047 25.6118 21.1148 25.5765 21.1225C25.5409 21.1302 25.5039 21.1365 25.4662 21.14C25.4282 21.1442 25.3891 21.1459 25.349 21.1459C25.3224 21.1459 25.2959 21.1452 25.2704 21.1431C25.2446 21.141 25.2195 21.1382 25.1947 21.134C25.1696 21.1302 25.1455 21.1253 25.1221 21.119C25.1032 21.1148 25.0847 21.1089 25.0666 21.103L25.0628 21.1016L25.0617 21.1009L25.053 21.0981C25.0303 21.0901 25.0083 21.082 24.9874 21.0733C24.9664 21.0649 24.9458 21.0558 24.9252 21.0461C24.9053 21.037 24.8854 21.0269 24.8659 21.0161C24.8467 21.0056 24.8279 20.9948 24.8097 20.9836V20.9832H24.8094C24.7916 20.9717 24.7741 20.9602 24.758 20.9487C24.7413 20.9372 24.7252 20.9253 24.7095 20.9131C24.6942 20.9005 24.6788 20.888 24.6645 20.8754C24.6502 20.8625 24.6362 20.8496 24.6233 20.8367C24.6104 20.8241 24.5978 20.8108 24.586 20.7979C24.5741 20.7853 24.5629 20.7728 24.5521 20.7613C24.5416 20.7487 24.5315 20.7368 24.5221 20.7253C24.513 20.7138 24.5043 20.7023 24.4959 20.6911L24.4938 20.6883L24.4921 20.6855V18.8311L24.4952 18.8279L24.4984 18.8255C24.5266 18.7976 24.5563 18.771 24.5867 18.7463C24.6174 18.7204 24.6488 18.6967 24.6813 18.6743L24.6837 18.6726C24.7151 18.6506 24.7483 18.63 24.7821 18.6105C24.8167 18.5906 24.8523 18.5714 24.8893 18.5539C24.9263 18.5365 24.964 18.5208 25.002 18.5079C25.0401 18.4946 25.0792 18.4838 25.1186 18.475C25.158 18.4663 25.1982 18.4597 25.239 18.4558C25.2799 18.451 25.3214 18.4492 25.3633 18.4492C25.3902 18.4492 25.4174 18.4499 25.4443 18.452C25.4715 18.4545 25.4991 18.4576 25.5266 18.4621C25.5546 18.467 25.5818 18.4719 25.609 18.4789C25.6362 18.4848 25.6642 18.4928 25.6917 18.5016C25.719 18.51 25.7462 18.5208 25.7731 18.533C25.7996 18.5459 25.8261 18.5599 25.8523 18.5759C25.8785 18.592 25.9039 18.6101 25.9291 18.6297C25.9542 18.6492 25.979 18.6705 26.0031 18.6935C26.0272 18.7173 26.0505 18.7424 26.0725 18.77C26.0945 18.7976 26.1155 18.8276 26.135 18.86C26.1549 18.8921 26.1734 18.926 26.1909 18.963C26.2083 18.9993 26.2247 19.0377 26.2401 19.0785C26.254 19.1159 26.2662 19.162 26.2771 19.2143C26.2886 19.2712 26.2984 19.334 26.3064 19.4V19.4004ZM26.817 20.2276C26.8272 20.1627 26.8345 20.0949 26.8397 20.0244C26.845 19.9539 26.8474 19.8806 26.8474 19.8049C26.8474 19.7449 26.8457 19.6761 26.8422 19.6056C26.839 19.5375 26.8345 19.4674 26.8282 19.4004C26.8226 19.34 26.8156 19.2806 26.8076 19.2269C26.8003 19.1773 26.7919 19.133 26.7825 19.097C26.7717 19.0552 26.7601 19.015 26.7476 18.9759C26.735 18.9372 26.7214 18.8995 26.7071 18.8639C26.6928 18.8279 26.6774 18.7934 26.6614 18.7606C26.6453 18.7278 26.6282 18.6963 26.6101 18.6663C26.5919 18.636 26.5731 18.6066 26.5535 18.5794C26.5343 18.5518 26.5144 18.5253 26.4938 18.5005C26.4732 18.475 26.4516 18.451 26.4296 18.4283C26.4076 18.4056 26.3846 18.3843 26.3612 18.3641C26.3375 18.3445 26.3134 18.3246 26.2889 18.3061C26.2645 18.2876 26.2401 18.2705 26.2156 18.2538C26.1909 18.2374 26.1661 18.2223 26.1409 18.2077C26.1162 18.1934 26.0907 18.1801 26.0656 18.1679C26.0401 18.1553 26.0142 18.1442 25.9884 18.1333C25.9629 18.1229 25.9371 18.1131 25.9109 18.104C25.8854 18.0956 25.8593 18.088 25.8331 18.0806C25.8073 18.074 25.7814 18.0681 25.7556 18.0628C25.7294 18.0583 25.7036 18.0538 25.6781 18.0496C25.6526 18.0457 25.6279 18.0429 25.6041 18.0401C25.5797 18.0377 25.5553 18.036 25.5315 18.0346C25.5078 18.0335 25.4847 18.0328 25.4617 18.0328C25.4125 18.0328 25.3647 18.0349 25.319 18.0391C25.2729 18.0436 25.2282 18.0499 25.1842 18.0583C25.1406 18.0667 25.0987 18.0775 25.0579 18.0901C25.017 18.103 24.9772 18.1173 24.9388 18.134C24.9008 18.1511 24.8638 18.17 24.8282 18.1895C24.7926 18.2101 24.758 18.2318 24.7245 18.2558C24.691 18.2789 24.6586 18.3044 24.6275 18.3316C24.5964 18.3588 24.5664 18.3874 24.5378 18.4178L24.5347 18.4209L24.5319 18.4241H24.4921V16.541H23.9985V21.4709H24.365L24.4732 21.1208L24.4753 21.1134L24.4774 21.1065H24.5144L24.5176 21.1113L24.5204 21.1162C24.5245 21.1229 24.5298 21.1309 24.5361 21.1396C24.5423 21.1483 24.5493 21.1574 24.557 21.1672L24.5626 21.1745H24.5629V21.1749C24.5692 21.1826 24.5758 21.1906 24.5825 21.1986C24.5923 21.2101 24.6027 21.222 24.6132 21.2342C24.624 21.2461 24.6355 21.2583 24.6481 21.2709C24.6607 21.2827 24.6743 21.2946 24.6886 21.3068C24.7032 21.319 24.719 21.3312 24.7354 21.3435C24.7514 21.355 24.7685 21.3668 24.7863 21.3787H24.7867L24.7874 21.3794C24.8052 21.3913 24.824 21.4028 24.8439 21.4136C24.8638 21.4248 24.8851 21.4356 24.9071 21.4457C24.9291 21.4562 24.9525 21.4663 24.9772 21.4761C24.9989 21.4845 25.0216 21.4928 25.045 21.5009L25.0533 21.5037C25.0795 21.512 25.1067 21.5197 25.1347 21.526C25.1626 21.5326 25.1919 21.5379 25.2219 21.5424C25.2523 21.5466 25.2837 21.5501 25.3162 21.5518C25.3483 21.5543 25.3818 21.5553 25.416 21.5553C25.4621 21.5553 25.5078 21.5529 25.5528 21.5487C25.5975 21.5445 25.6425 21.5379 25.6868 21.5288C25.7312 21.5201 25.7751 21.5096 25.8188 21.496C25.861 21.4834 25.9029 21.4684 25.9437 21.4517L25.9472 21.4503C25.9902 21.4328 26.032 21.4129 26.0722 21.3913C26.1127 21.3693 26.1518 21.3449 26.1898 21.3187C26.2275 21.2921 26.2642 21.2632 26.2998 21.2321C26.3354 21.201 26.3699 21.1675 26.4031 21.1316L26.4062 21.1284C26.4383 21.0935 26.469 21.0565 26.4984 21.0171C26.5284 20.9766 26.5567 20.9337 26.5835 20.8883C26.6104 20.8433 26.6355 20.7955 26.6593 20.7456C26.683 20.6953 26.705 20.6426 26.7256 20.5878C26.7458 20.5326 26.7636 20.475 26.779 20.4154C26.7943 20.3553 26.8069 20.2925 26.817 20.2276Z" fill="#989899"/>
</svg>
