<svg width="42" height="16" viewBox="0 0 42 16" fill="none" xmlns="http://www.w3.org/2000/svg">
<path fill-rule="evenodd" clip-rule="evenodd" d="M15.9414 3.71655C16.4326 3.71655 16.9208 3.71748 17.4088 3.72167L19.3669 7.50085V3.71655H20.542V9.70678L19.2512 9.70701L17.1165 5.45268V9.70678H15.9414V3.71655Z" fill="#151616"/>
<path fill-rule="evenodd" clip-rule="evenodd" d="M33.7972 5.17261C35.0675 5.17261 36.0974 6.20251 36.0974 7.47278C36.0974 8.74306 35.0675 9.77296 33.7972 9.77296C32.527 9.77296 31.4971 8.74306 31.4971 7.47278C31.4971 6.20251 32.527 5.17261 33.7972 5.17261ZM33.7972 6.33096C34.4278 6.33096 34.9391 6.84218 34.9391 7.47278C34.9391 8.10338 34.4278 8.61461 33.7972 8.61461C33.1666 8.61461 32.6554 8.10338 32.6554 7.47278C32.6554 6.84218 33.1666 6.33096 33.7972 6.33096Z" fill="#151616"/>
<path fill-rule="evenodd" clip-rule="evenodd" d="M23.2064 5.17261C24.4769 5.17261 25.5066 6.20251 25.5066 7.47278C25.5066 8.74306 24.4769 9.77296 23.2064 9.77296C21.9362 9.77296 20.9062 8.74306 20.9062 7.47278C20.9062 6.20251 21.9362 5.17261 23.2064 5.17261ZM23.2064 6.33096C23.837 6.33096 24.3483 6.84218 24.3483 7.47278C24.3483 8.10338 23.837 8.61461 23.2064 8.61461C22.5758 8.61461 22.0646 8.10338 22.0646 7.47278C22.0646 6.84218 22.5758 6.33096 23.2064 6.33096Z" fill="#151616"/>
<path fill-rule="evenodd" clip-rule="evenodd" d="M25.8872 5.30522C25.8872 6.77236 25.8872 8.23949 25.8872 9.70685C26.323 9.70685 26.7586 9.70685 27.1945 9.70685C27.1945 9.01482 27.1945 8.32256 27.1945 7.63076C27.1945 7.44763 27.2224 7.33431 27.282 7.15863C27.4018 6.80493 27.604 6.50429 27.9572 6.30138C28.1378 6.19784 28.1581 6.19877 28.3577 6.19877C28.6318 6.19877 28.9062 6.19877 29.1803 6.19877C29.1803 6.99295 29.1803 7.78713 29.1803 8.58155C29.2222 9.88998 30.5664 9.92303 31.5465 9.65706C31.4914 9.36479 31.4362 9.07276 31.3811 8.78003C30.8205 8.91011 30.4212 8.94781 30.4212 8.24507C30.4212 7.56282 30.4212 6.88079 30.4212 6.19877C30.7358 6.19877 31.0502 6.19877 31.3646 6.19877C31.3646 5.88975 31.3646 5.58073 31.3646 5.27195C31.0611 5.27195 30.7577 5.27195 30.4545 5.27195C30.4545 4.85845 30.4545 4.44449 30.4545 4.03076C30.1069 4.03076 29.7595 4.03076 29.4118 4.03076C29.3127 4.44449 29.2133 4.85845 29.114 5.27195C28.8729 5.27195 28.6318 5.27195 28.3908 5.27195C28.075 5.27195 27.7997 5.35479 27.537 5.53792C27.3108 5.69568 27.1347 5.92093 27.029 6.23158C26.9022 5.92838 26.7752 5.62518 26.6483 5.32151C26.3947 5.31593 26.1408 5.31058 25.8872 5.30522Z" fill="#151616"/>
<path fill-rule="evenodd" clip-rule="evenodd" d="M36.4219 5.28278C36.4219 6.76364 36.4219 8.24497 36.4219 9.72606C36.8351 9.72606 37.2484 9.72606 37.6617 9.72606C37.6617 8.74596 37.6617 7.76585 37.6617 6.78575C37.6617 6.37434 38.6525 6.00669 39.0657 6.51163C39.1751 6.64543 39.1649 6.68057 39.1649 6.84043C39.1649 7.79494 39.1649 8.74945 39.1649 9.70395C39.5853 9.70395 40.0061 9.70395 40.4265 9.70395C40.4265 8.68383 40.4265 7.66347 40.4265 6.6431C40.4265 6.29546 40.2611 5.95619 40.0463 5.68557C39.7331 5.29022 39.2835 5.11291 38.6353 5.23368C38.1976 5.31536 37.8483 5.5669 37.4422 5.97388C37.3545 5.747 37.2668 5.52036 37.1791 5.29348C36.9266 5.29022 36.6743 5.28627 36.4219 5.28278Z" fill="#151616"/>
<mask id="mask0_187_907" style="mask-type:luminance" maskUnits="userSpaceOnUse" x="40" y="5" width="2" height="1">
<path d="M40.3882 5.2478H41.3532V5.90307H40.3882V5.2478Z" fill="white"/>
</mask>
<g mask="url(#mask0_187_907)">
<path fill-rule="evenodd" clip-rule="evenodd" d="M40.6702 5.37458H40.8198V5.27173H40.417V5.37458H40.5666V5.85323H40.6702V5.37458ZM41.3564 5.27173H41.2068L41.1183 5.73013H41.1169L41.0273 5.27173H40.8763V5.85323H40.9729V5.36737H40.9743L41.0646 5.85323H41.166L41.2584 5.36737H41.2598V5.85323H41.3564V5.27173Z" fill="#151616"/>
</g>
<mask id="mask1_187_907" style="mask-type:luminance" maskUnits="userSpaceOnUse" x="0" y="2" width="14" height="14">
<path d="M0 2.09058H13.8797V16.0001H0V2.09058Z" fill="white"/>
</mask>
<g mask="url(#mask1_187_907)">
<path fill-rule="evenodd" clip-rule="evenodd" d="M6.92756 15.9965C3.1093 15.996 0.00144195 12.8886 0.000976562 9.06919C0.00144195 5.25045 3.1093 2.1433 6.92756 2.14307C10.7465 2.1433 13.8544 5.25045 13.8544 9.06919C13.8544 12.8886 10.7465 15.996 6.92756 15.9965ZM6.92756 4.33457C5.66404 4.33457 4.47497 4.82695 3.57934 5.72119C2.6851 6.61613 2.19202 7.8052 2.19202 9.06919C2.19202 10.3336 2.6851 11.5232 3.57957 12.4186C4.47427 13.3121 5.6638 13.805 6.92756 13.805C8.19248 13.805 9.38155 13.3121 10.277 12.4174C11.1703 11.5232 11.6633 10.3336 11.6633 9.06919C11.6633 7.8052 11.1703 6.61613 10.2767 5.72073C9.38108 4.82695 8.19132 4.33457 6.92756 4.33457Z" fill="#FCBB17"/>
</g>
<path fill-rule="evenodd" clip-rule="evenodd" d="M14.4731 1.61603H15.0135V1.07642H14.4731V1.61603Z" fill="#FCBB17"/>
<path fill-rule="evenodd" clip-rule="evenodd" d="M14.4731 0.541012H15.0135V0H14.4731V0.541012Z" fill="#FCBB17"/>
<path fill-rule="evenodd" clip-rule="evenodd" d="M12.9536 2.13982H13.4586V1.6123H12.9536V2.13982Z" fill="#FCBB17"/>
<path fill-rule="evenodd" clip-rule="evenodd" d="M11.9536 3.15221H12.4623V2.64819H11.9536V3.15221Z" fill="#151616"/>
<path fill-rule="evenodd" clip-rule="evenodd" d="M13.4585 2.64835H14.0239V2.14038H13.4585V2.64835Z" fill="#151616"/>
<path fill-rule="evenodd" clip-rule="evenodd" d="M11.4473 2.64835H11.9536V2.16528H11.4473V2.64835Z" fill="#151616"/>
<path fill-rule="evenodd" clip-rule="evenodd" d="M12.9536 3.15221H13.4586V2.64819H12.9536V3.15221Z" fill="#151616"/>
<path fill-rule="evenodd" clip-rule="evenodd" d="M13.9395 1.07644H14.4735V0.541016H13.9395V1.07644Z" fill="#151616"/>
<path fill-rule="evenodd" clip-rule="evenodd" d="M12.9536 1.61232H13.9393V1.07666H12.9536V1.61232Z" fill="#151616"/>
<path fill-rule="evenodd" clip-rule="evenodd" d="M12.4624 2.64826H12.9536V1.6123H12.4624V2.64826Z" fill="#151616"/>
<path fill-rule="evenodd" clip-rule="evenodd" d="M12.4624 3.15234V3.66055H11.9538V3.15234H11.11V3.5186H10.6577V3.97049H11.1628V4.47381H10.6577V3.97049H10.1213V4.76002H9.61356V5.2638H9.27639V5.76968H8.90617C8.48988 6.38864 7.44742 8.31697 7.13188 9.10301C5.99611 7.52163 5.11397 6.89475 4.41914 6.66788C4.04404 6.55479 3.59262 6.96316 4.2153 7.6054C5.64474 9.17747 6.09523 10.4792 6.52944 11.5179C6.75934 12.0652 7.78994 12.1499 7.9975 11.5931C8.43753 10.414 9.07511 9.09021 9.83043 8.00307V7.43902H10.2337V6.93105H10.6577V6.34211H11.1647V5.7748H10.6523V5.25868H11.1647V5.7748H11.6659L11.6643 5.2638H12.0668V4.6474H12.5185V4.22297H12.9536V3.15234H12.4624Z" fill="#151616"/>
<path fill-rule="evenodd" clip-rule="evenodd" d="M21.6773 13.7994L21.5352 14.0246C21.6443 14.1102 21.7986 14.2005 21.9915 14.2664C22.159 14.3236 22.3559 14.362 22.5774 14.362C22.9257 14.362 23.1966 14.2752 23.3809 14.1242C23.5696 13.9697 23.669 13.7459 23.669 13.4778C23.669 13.1932 23.564 12.9977 23.3946 12.8497C23.2199 12.6973 22.9751 12.5915 22.7035 12.4907C22.4541 12.3988 22.2795 12.3178 22.1653 12.2198C22.0436 12.1154 21.9903 11.9946 21.9903 11.8282C21.9903 11.6665 22.0371 11.5329 22.1483 11.4385C22.256 11.3472 22.4222 11.2961 22.6628 11.2961C22.8599 11.2961 23.0202 11.3272 23.1526 11.3703C23.2592 11.4052 23.3471 11.448 23.4216 11.4883L23.5347 11.2404C23.4297 11.1846 23.3227 11.1353 23.1961 11.0985C23.0514 11.0568 22.8783 11.0312 22.6493 11.0312C22.3279 11.0312 22.0864 11.1108 21.9231 11.2444C21.7492 11.3868 21.6629 11.592 21.6629 11.8282C21.6629 12.1042 21.7583 12.2931 21.9131 12.436C22.0717 12.5828 22.2956 12.685 22.5439 12.7827C22.7854 12.8779 22.9751 12.9577 23.1075 13.0629C23.2475 13.1739 23.322 13.3096 23.322 13.5108C23.322 13.6963 23.2503 13.8408 23.1207 13.9399C22.9927 14.0381 22.8089 14.0895 22.5839 14.0895C22.3694 14.0895 22.1867 14.0481 22.0296 13.9874C21.8942 13.9346 21.7783 13.8676 21.6773 13.7994Z" fill="#989899"/>
<path fill-rule="evenodd" clip-rule="evenodd" d="M23.8799 12.0022H24.2322L24.8656 14.055L25.4706 12.0022H25.8131L24.9891 14.6028C24.856 15.0265 24.6324 15.2506 24.2084 15.2506C24.1226 15.2506 24.0228 15.2315 23.9513 15.2075L23.9944 14.9507C24.0465 14.96 24.1082 14.9742 24.1847 14.9742C24.4705 14.9742 24.6368 14.8031 24.7178 14.5267L23.8799 12.0022Z" fill="#989899"/>
<path fill-rule="evenodd" clip-rule="evenodd" d="M28.7051 11.9595C29.1772 11.9595 29.2959 12.3546 29.2959 12.7404V14.3837H28.9529V12.745C28.9529 12.493 28.915 12.2543 28.6004 12.2543C28.3858 12.2543 28.1622 12.3881 27.9388 12.6168V14.3837H27.5956V12.745C27.5956 12.493 27.5579 12.2543 27.2428 12.2543C27.0239 12.2543 26.7958 12.4069 26.581 12.6215V14.3837H26.2383V12.0021H26.4335L26.5336 12.3925C26.7525 12.1594 27.0239 11.9595 27.348 11.9595C27.6575 11.9595 27.7908 12.131 27.8858 12.379C28.1098 12.1356 28.396 11.9595 28.7051 11.9595Z" fill="#989899"/>
<path fill-rule="evenodd" clip-rule="evenodd" d="M31.2453 13.1218C30.726 13.2216 30.3832 13.3314 30.2545 13.4932C30.1929 13.5692 30.1738 13.6407 30.1738 13.75C30.1738 13.9932 30.2927 14.1405 30.5782 14.1405C30.8498 14.1405 31.0832 13.9979 31.2453 13.8741V13.1218ZM31.2453 12.7739C31.2453 12.426 31.1404 12.2496 30.7639 12.2496C30.521 12.2496 30.3022 12.3499 30.0882 12.4642L29.9595 12.2308C30.1833 12.0786 30.44 11.9595 30.793 11.9595C31.3691 11.9595 31.5883 12.2787 31.5883 12.7974V14.3837H31.3931C31.3931 14.3837 31.2928 14.0928 31.2886 14.0928C31.1213 14.2596 30.8544 14.4218 30.5452 14.4218C30.1312 14.4218 29.8257 14.1596 29.8257 13.7691C29.8257 13.5069 29.9311 13.3214 30.1589 13.1879C30.3781 13.0596 30.7739 12.9645 31.2453 12.893C31.2453 12.8879 31.2453 12.7739 31.2453 12.7739Z" fill="#989899"/>
<path fill-rule="evenodd" clip-rule="evenodd" d="M32.3511 12.0021H32.5461L32.6461 12.4069C32.8656 12.1594 33.1462 11.9595 33.508 11.9595C34.0132 11.9595 34.1463 12.3546 34.1463 12.7404V14.3837H33.804V12.745C33.804 12.493 33.7461 12.2543 33.4033 12.2543C33.1608 12.2543 32.9081 12.4069 32.6941 12.6357V14.3837H32.3511V12.0021Z" fill="#989899"/>
<path fill-rule="evenodd" clip-rule="evenodd" d="M34.6206 12.2497V12.0022H34.9876L35.0876 11.3215H35.3205V12.0022H35.8541V12.2497H35.3205V13.7981C35.3205 14.0266 35.3589 14.155 35.5874 14.155C35.6875 14.155 35.7541 14.1364 35.8641 14.1073L35.916 14.3454C35.8257 14.3884 35.6973 14.4219 35.573 14.4219C35.1539 14.4219 34.9783 14.2121 34.9783 13.8216V12.2497H34.6206Z" fill="#989899"/>
<path fill-rule="evenodd" clip-rule="evenodd" d="M37.7292 13.0406C37.7106 12.4982 37.5291 12.2215 37.1724 12.2215C36.8482 12.2215 36.6244 12.4784 36.5962 13.0406H37.7292ZM37.2294 14.1452C37.5056 14.1452 37.6773 14.0456 37.8821 13.9073L38.0291 14.1072C37.8011 14.3025 37.5914 14.4218 37.201 14.4218C36.6055 14.4218 36.2295 13.9455 36.2295 13.193C36.2295 12.4549 36.6009 11.9595 37.1675 11.9595C37.7483 11.9595 38.082 12.3881 38.082 13.2123V13.2882H36.5913C36.6151 13.8455 36.8005 14.1452 37.2294 14.1452Z" fill="#989899"/>
<path fill-rule="evenodd" clip-rule="evenodd" d="M38.5024 13.2123C38.5024 12.6264 38.7405 11.9595 39.469 11.9595C39.7741 11.9595 40.0026 12.0453 40.1976 12.2071L40.055 12.4356C39.9072 12.3218 39.7024 12.2359 39.469 12.2359C38.9259 12.2359 38.8645 12.8121 38.8645 13.2167C38.8645 13.5976 38.9406 14.1452 39.4881 14.1452C39.7406 14.1452 39.9168 14.0502 40.0787 13.9073L40.2407 14.1026C40.0787 14.2741 39.8304 14.4218 39.469 14.4218C38.7598 14.4218 38.5024 13.7836 38.5024 13.2123Z" fill="#989899"/>
<path fill-rule="evenodd" clip-rule="evenodd" d="M18.1826 12.0022H18.5349L19.1683 14.055L19.7735 12.0022H20.1161L19.2921 14.6028C19.1588 15.0265 18.9351 15.2506 18.5114 15.2506C18.4253 15.2506 18.3257 15.2315 18.2541 15.2075L18.2971 14.9507C18.3495 14.96 18.4111 14.9742 18.4874 14.9742C18.7734 14.9742 18.9396 14.8031 19.0208 14.5267L18.1826 12.0022Z" fill="#989899"/>
<path fill-rule="evenodd" clip-rule="evenodd" d="M17.5376 12.9336C17.5432 12.9815 17.5476 13.0318 17.5506 13.0818C17.5536 13.1337 17.5553 13.1851 17.5553 13.2323C17.5553 13.2633 17.5543 13.2942 17.5525 13.3243C17.5509 13.3545 17.5483 13.3843 17.5448 13.4129C17.5413 13.442 17.5369 13.4704 17.5318 13.4983C17.5264 13.526 17.5204 13.5535 17.5134 13.5802C17.5064 13.607 17.4985 13.6323 17.4901 13.657C17.4813 13.6819 17.472 13.7054 17.4615 13.7284C17.4513 13.751 17.4401 13.7731 17.428 13.7943C17.4161 13.8157 17.4031 13.8357 17.3894 13.855L17.3889 13.8557C17.3752 13.8746 17.3605 13.893 17.3452 13.9095C17.3298 13.9267 17.3133 13.9428 17.2961 13.9577C17.2788 13.9725 17.2607 13.9867 17.2418 13.9993C17.2232 14.0121 17.2034 14.0235 17.183 14.0344C17.1627 14.0447 17.1415 14.054 17.1194 14.0619C17.0973 14.0698 17.0745 14.0766 17.051 14.0817C17.0273 14.0868 17.0026 14.091 16.9775 14.0933C16.9521 14.0961 16.9261 14.0973 16.8993 14.0973C16.8816 14.0973 16.8639 14.0968 16.847 14.0954C16.8297 14.094 16.813 14.0921 16.7965 14.0894C16.7797 14.0868 16.7637 14.0835 16.7481 14.0794C16.7355 14.0766 16.7232 14.0726 16.7111 14.0686L16.7085 14.0677L16.7078 14.0673L16.702 14.0654C16.6869 14.06 16.6722 14.0547 16.6582 14.0489C16.6443 14.0433 16.6306 14.0372 16.6168 14.0307C16.6036 14.0247 16.5903 14.0179 16.5773 14.0107C16.5645 14.0037 16.5519 13.9965 16.5398 13.9891V13.9888H16.5396C16.5277 13.9812 16.5161 13.9735 16.5054 13.9658C16.4942 13.9581 16.4835 13.9502 16.473 13.9421C16.4628 13.9337 16.4525 13.9253 16.443 13.9169C16.4335 13.9083 16.4242 13.8997 16.4155 13.8911C16.4069 13.8827 16.3986 13.8739 16.3906 13.8653C16.3827 13.8569 16.3753 13.8485 16.3681 13.8408C16.3611 13.8325 16.3543 13.8246 16.3481 13.8169C16.342 13.8092 16.3362 13.8015 16.3306 13.7941L16.3292 13.7922L16.3281 13.7903V12.554L16.3301 12.552L16.3322 12.5503C16.3511 12.5317 16.3709 12.514 16.3911 12.4975C16.4116 12.4803 16.4325 12.4645 16.4542 12.4496L16.4558 12.4484C16.4767 12.4337 16.4988 12.42 16.5214 12.407C16.5445 12.3937 16.5682 12.3809 16.5929 12.3693C16.6175 12.3577 16.6427 12.3472 16.668 12.3386C16.6934 12.3297 16.7194 12.3225 16.7457 12.3167C16.772 12.3109 16.7988 12.3065 16.826 12.3039C16.8532 12.3006 16.8809 12.2995 16.9089 12.2995C16.9268 12.2995 16.9449 12.2999 16.9628 12.3013C16.981 12.303 16.9994 12.3051 17.0178 12.3081C17.0364 12.3113 17.0545 12.3146 17.0727 12.3193C17.0908 12.3232 17.1094 12.3286 17.1278 12.3344C17.146 12.34 17.1641 12.3472 17.182 12.3553C17.1997 12.3639 17.2174 12.3732 17.2349 12.3839C17.2523 12.3947 17.2693 12.4068 17.2861 12.4198C17.3028 12.4328 17.3193 12.447 17.3354 12.4624C17.3514 12.4782 17.367 12.4949 17.3817 12.5133C17.3963 12.5317 17.4103 12.5517 17.4233 12.5734C17.4366 12.5948 17.4489 12.6173 17.4606 12.642C17.4722 12.6662 17.4831 12.6918 17.4934 12.719C17.5027 12.7439 17.5108 12.7746 17.518 12.8095C17.5257 12.8475 17.5322 12.8894 17.5376 12.9333V12.9336ZM17.878 13.4851C17.8848 13.4418 17.8897 13.3966 17.8931 13.3496C17.8966 13.3026 17.8983 13.2538 17.8983 13.2033C17.8983 13.1632 17.8971 13.1174 17.8948 13.0704C17.8927 13.025 17.8897 12.9782 17.8855 12.9336C17.8817 12.8933 17.8771 12.8538 17.8717 12.8179C17.8669 12.7849 17.8613 12.7553 17.855 12.7314C17.8478 12.7034 17.8401 12.6767 17.8317 12.6506C17.8233 12.6248 17.8143 12.5997 17.8047 12.5759C17.7952 12.552 17.7849 12.5289 17.7742 12.507C17.7635 12.4852 17.7521 12.4642 17.74 12.4442C17.7279 12.424 17.7154 12.4044 17.7023 12.3863C17.6895 12.3679 17.6763 12.3502 17.6625 12.3337C17.6488 12.3167 17.6344 12.3006 17.6197 12.2855C17.6051 12.2704 17.5897 12.2562 17.5741 12.2427C17.5583 12.2297 17.5422 12.2164 17.526 12.2041C17.5097 12.1917 17.4934 12.1803 17.4771 12.1692C17.4606 12.1582 17.444 12.1482 17.4273 12.1385C17.4108 12.1289 17.3938 12.1201 17.377 12.1119C17.36 12.1036 17.3428 12.0961 17.3256 12.0889C17.3086 12.0819 17.2914 12.0754 17.274 12.0693C17.257 12.0638 17.2395 12.0586 17.2221 12.0538C17.2048 12.0493 17.1876 12.0454 17.1704 12.0419C17.153 12.0389 17.1357 12.0358 17.1187 12.033C17.1018 12.0305 17.0852 12.0286 17.0694 12.0268C17.0531 12.0251 17.0368 12.024 17.021 12.023C17.0052 12.0223 16.9898 12.0219 16.9745 12.0219C16.9417 12.0219 16.9098 12.0233 16.8793 12.0261C16.8486 12.0291 16.8188 12.0333 16.7895 12.0389C16.7604 12.0444 16.7325 12.0517 16.7052 12.06C16.678 12.0686 16.6515 12.0782 16.6259 12.0894C16.6005 12.1008 16.5759 12.1133 16.5521 12.1264C16.5284 12.1401 16.5054 12.1545 16.483 12.1706C16.4607 12.1859 16.439 12.2029 16.4183 12.2211C16.3976 12.2392 16.3776 12.2583 16.3585 12.2785L16.3564 12.2806L16.3546 12.2827H16.3281V11.0273H15.999V14.3139H16.2434L16.3155 14.0805L16.3169 14.0756L16.3183 14.071H16.3429L16.345 14.0742L16.3469 14.0775C16.3497 14.0819 16.3532 14.0873 16.3574 14.0931C16.3616 14.0989 16.3662 14.1049 16.3713 14.1115L16.3751 14.1163H16.3753V14.1166C16.3795 14.1217 16.3839 14.1271 16.3883 14.1324C16.3948 14.1401 16.4018 14.148 16.4088 14.1561C16.416 14.1641 16.4237 14.1722 16.4321 14.1806C16.4404 14.1885 16.4495 14.1964 16.4591 14.2045C16.4688 14.2127 16.4793 14.2208 16.4902 14.229C16.5009 14.2367 16.5123 14.2446 16.5242 14.2525H16.5244L16.5249 14.2529C16.5368 14.2609 16.5493 14.2685 16.5626 14.2757C16.5759 14.2832 16.5901 14.2904 16.6047 14.2972C16.6194 14.3041 16.635 14.3109 16.6515 14.3174C16.6659 14.323 16.681 14.3286 16.6966 14.3339L16.7022 14.3358C16.7197 14.3414 16.7378 14.3465 16.7564 14.3507C16.7751 14.3551 16.7946 14.3586 16.8146 14.3616C16.8349 14.3644 16.8558 14.3667 16.8774 14.3679C16.8988 14.3695 16.9212 14.3702 16.944 14.3702C16.9747 14.3702 17.0052 14.3686 17.0352 14.3658C17.065 14.363 17.095 14.3586 17.1246 14.3525C17.1541 14.3467 17.1834 14.3397 17.2125 14.3307C17.2407 14.3223 17.2686 14.3123 17.2958 14.3011L17.2982 14.3002C17.3268 14.2885 17.3547 14.2753 17.3815 14.2609C17.4084 14.2462 17.4345 14.2299 17.4599 14.2125C17.485 14.1948 17.5094 14.1755 17.5332 14.1547C17.5569 14.134 17.5799 14.1117 17.602 14.0877L17.6041 14.0856C17.6256 14.0624 17.646 14.0377 17.6656 14.0114C17.6856 13.9844 17.7044 13.9558 17.7224 13.9255C17.7403 13.8955 17.757 13.8636 17.7728 13.8304C17.7887 13.7969 17.8033 13.7617 17.8171 13.7252C17.8306 13.6884 17.8424 13.65 17.8527 13.6102C17.8629 13.5702 17.8713 13.5283 17.878 13.4851Z" fill="#989899"/>
</svg>
